<svg width="41" height="40" viewBox="0 0 41 40" fill="none" xmlns="http://www.w3.org/2000/svg">
<g opacity="0.83">
<g opacity="0.83">
<path opacity="0.83" d="M29.6654 32.6105C27.8462 34.6366 24.7784 38.0682 20.1625 38.9743C15.6465 39.8661 11.4586 37.9826 11.6084 37.4404C11.7297 37.0124 14.3337 37.6544 17.1946 36.1848C20.2124 34.6295 21.5822 31.7115 21.9603 30.9125C22.7165 29.3001 22.9663 27.8875 23.109 26.9672C23.2873 25.8329 23.2802 25.0053 23.2659 23.5641C23.2302 20.1183 22.8093 20.104 23.1303 18.7699C23.2374 18.3347 23.8795 15.6522 26.0768 14.4322C26.8402 14.0113 28.0459 13.6189 28.1458 13.5832C29.2445 13.2265 29.7867 13.041 30.1862 13.0981C31.4918 13.2978 32.1267 15.0743 32.833 17.0862C33.361 18.5772 33.5536 19.8044 33.6392 20.4465C33.7462 21.2954 33.9103 22.6795 33.6463 24.4916C33.5322 25.2906 33.2112 26.9743 32.2338 28.9292C31.877 29.6283 31.1422 30.9696 29.6654 32.6105Z" fill="#7B64A9"/>
</g>
<g opacity="0.83">
<path opacity="0.83" d="M38.5336 27.6593C37.9414 28.8079 36.7999 30.72 34.7381 32.6819C29.9224 37.2764 23.7013 38.7532 23.5158 38.4036C23.3303 38.0612 29.1947 36.0636 32.1555 31.3549C32.6263 30.6058 33.3469 29.2717 33.9176 27.6736C34.681 25.5404 34.838 23.8639 34.8879 23.2432C35.0092 21.6379 34.8451 20.3895 34.731 19.7117C34.5954 18.934 34.2815 17.179 33.1614 15.2171C32.2482 13.619 31.5419 13.1909 31.8059 12.8485C32.3124 12.1921 35.9081 12.4418 38.0983 14.1041C41.9366 17.0292 40.6097 23.607 38.5336 27.6593Z" fill="#7B64A9"/>
</g>
<g opacity="0.83">
<path opacity="0.83" d="M4.75209 13.8258C4.74495 13.2693 4.73782 8.1754 8.50475 4.88647C9.78893 3.76638 11.494 2.88172 11.9934 3.2099C12.4429 3.50241 11.544 4.65816 11.2586 6.52022C11.0374 7.98989 11.3228 9.03151 11.6938 10.3656C12.0577 11.6712 12.7354 14.1183 14.9827 16.0731C17.5939 18.3489 19.5915 17.5713 20.7901 19.7687C21.6605 21.3739 21.5178 23.2788 21.475 23.7782C21.3751 24.991 21.3109 25.733 20.7687 26.2752C18.8923 28.1658 13.2633 25.5974 12.8139 25.3905C9.28237 23.7425 7.49166 21.2526 7.0208 20.5677C6.37157 19.5974 4.80916 17.2431 4.75209 13.8258Z" fill="#7B64A9"/>
</g>
<g opacity="0.83">
<path opacity="0.83" d="M3.36851 29.3216C3.04033 28.7294 2.29838 27.3239 1.64915 25.2265C0.992795 23.0933 0.215139 20.5891 0.564721 17.6213C1.03559 13.6403 3.3471 10.4513 3.85364 10.594C4.38158 10.7367 2.94758 13.8972 4.12474 18.1278C4.65268 20.0113 5.46599 21.2812 5.72283 21.6736C7.43506 24.2348 9.76087 25.5475 11.4945 26.5178C12.8072 27.2526 13.4636 27.6236 14.4125 27.859C17.4874 28.6224 19.3851 27.2597 20.1841 28.1729C21.0117 29.1147 19.7775 31.469 18.7073 32.7318C17.7941 33.8091 16.7811 34.3584 16.2246 34.658C15.7109 34.9291 13.2852 36.1563 10.5671 35.7211C8.76921 35.4286 7.77753 34.5653 6.45768 33.4167C4.89527 32.0326 4.11048 30.6628 3.36851 29.3216Z" fill="#7B64A9"/>
</g>
<path opacity="0.83" d="M26.826 4.67961C27.8034 4.594 31.2707 4.31576 34.3384 6.02086C37.7415 7.91146 39.1541 11.4073 38.5405 11.8781C38.298 12.0636 37.8628 11.6998 36.707 11.286C36.4645 11.2004 35.7368 10.9721 35.1946 10.8579C33.8533 10.5654 32.6904 10.7795 31.2707 11.0506C30.1934 11.2575 29.4158 11.5072 28.5882 11.7711C26.4265 12.4632 25.3492 12.8127 24.6928 13.3335C22.6167 14.9744 23.4086 17.3787 22.0603 17.821C20.9758 18.1778 19.6631 16.9079 18.065 15.3668C16.3171 13.676 15.4467 12.8342 15.4967 11.5999C15.568 9.69505 17.7654 8.24677 19.2778 7.24797C20.6334 6.34904 21.8819 5.9067 22.738 5.60706C23.3801 5.3859 24.9282 4.85083 26.826 4.67961Z" fill="#644897"/>
<path opacity="0.83" d="M17.2368 1.06963C21.603 -0.828104 25.9906 0.670103 27.8669 1.31219C30.7135 2.28246 32.8324 3.74499 32.6326 4.04463C32.4471 4.33714 30.9917 3.81634 28.6588 3.7236C27.9168 3.69506 23.5649 3.56663 19.641 5.67126C15.8884 7.68314 15.1892 10.3086 14.1547 9.96614C12.7992 9.51667 12.6137 4.55831 15.3818 2.13978C16.0025 1.59757 16.5804 1.355 17.2368 1.06963Z" fill="#644897"/>
</g>
</svg>
