<svg width="146" height="146" viewBox="0 0 146 146" fill="none" xmlns="http://www.w3.org/2000/svg">
<path d="M84.0481 28.8297C81.0088 15.1318 69.865 2.79654 59.1707 1.1271C50.2385 -0.271224 41.4419 4.06641 37.3539 11.8785C33.7296 18.8202 34.2719 31.0698 38.5596 35.2934C48.8116 45.3813 59.2349 55.3052 69.3799 65.5073C72.0267 68.1684 73.532 67.7617 75.6438 65.1363C82.0148 57.21 85.2038 48.2137 85.2038 36.5704C84.9684 34.9723 84.7187 31.8546 84.0481 28.8297ZM55.4537 29.8071C50.5096 29.8071 46.493 25.7976 46.493 20.8463C46.493 15.9023 50.5096 11.8856 55.4537 11.8856C60.4049 11.8856 64.4144 15.9023 64.4144 20.8463C64.4144 25.7976 60.4049 29.8071 55.4537 29.8071Z" fill="white"/>
<path d="M65.0706 70.1874C57.3013 64.0662 48.519 60.9556 38.2527 60.5561C26.1529 61.0484 15.4728 65.5787 6.95442 74.9674C-1.13591 83.8782 -1.18584 96.9483 6.91162 104.967C15.1589 113.143 27.9578 113.257 36.7973 104.782C46.557 95.4287 55.8602 85.6047 65.5914 76.2302C68.3952 73.5263 67.6675 72.235 65.0706 70.1874ZM19.6178 100.458C14.6666 100.458 10.6571 96.4489 10.6571 91.4977C10.6571 86.5536 14.6666 82.537 19.6178 82.537C24.5691 82.537 28.5786 86.5536 28.5786 91.4977C28.5786 96.4489 24.5691 100.458 19.6178 100.458Z" fill="white"/>
<path d="M104.474 108.563C95.2704 98.9673 85.5463 89.8639 76.3002 80.2967C73.5677 77.4716 72.1266 78.2278 70.1219 80.7747C64.1647 88.3514 61.0184 96.9269 60.519 106.829C60.9685 119.008 65.0422 129.845 74.5095 138.442C84.1408 147.195 96.3548 147.509 104.902 138.977C113.313 130.579 113.342 117.809 104.474 108.563ZM91.2965 137.321C86.3453 137.321 82.3358 133.312 82.3358 128.361C82.3358 123.409 86.3453 119.4 91.2965 119.4C96.2406 119.4 100.25 123.409 100.25 128.361C100.25 133.312 96.2406 137.321 91.2965 137.321Z" fill="white"/>
<path d="M139.09 41.2648C131.064 33.0532 118.329 32.3327 109.775 40.3659C99.6156 49.9045 90.077 60.1066 80.1175 69.8735C77.6347 72.3063 78.2839 73.7403 80.5883 75.5952C88.2863 81.7878 97.0829 84.9126 108.562 85.3193C119.749 85.0482 130.529 80.2682 139.147 70.6582C147.087 61.8045 147.095 49.455 139.09 41.2648ZM123.551 63.0816C118.6 63.0816 114.591 59.0721 114.591 54.128C114.591 49.1768 118.6 45.1673 123.551 45.1673C128.495 45.1673 132.505 49.1768 132.505 54.128C132.505 59.0721 128.495 63.0816 123.551 63.0816Z" fill="white"/>
<path d="M56.41 93.959C48.9974 101.029 42.1342 106.309 37.5611 113.671C32.9238 121.134 34.2294 131.307 40.0439 137.828C46.2436 144.784 56.1389 147.138 64.2221 143.378C65.8273 142.629 69.5371 142.237 66.8546 139.062C56.1175 126.356 52.9284 111.802 56.41 93.959Z" fill="white"/>
<path d="M50.3812 56.2612C50.0958 55.0911 50.1386 54.5418 49.8818 54.2849C45.2017 49.5977 40.5216 44.9105 35.7558 40.3088C28.8141 33.5954 17.3921 33.0461 9.33027 38.9533C1.24708 44.8748 -1.56381 56.4823 2.80953 65.0863C4.07944 67.5833 5.11388 68.5393 7.6323 66.4204C19.9675 56.0614 34.1292 52.8724 50.3812 56.2612Z" fill="white"/>
<path d="M94.6284 90.0351C100.536 96.5202 105.687 102.591 112.136 107.264C119.67 112.722 129.736 112.294 136.956 106.694C144.34 100.965 146.916 91.0695 143.584 82.1088C142.2 78.3776 141.066 77.0364 137.292 80.2682C129.287 87.1314 119.698 90.5702 109.161 90.8983C104.645 91.0339 100.108 90.3847 94.6284 90.0351Z" fill="white"/>
<path d="M89.392 51.8522C96.5905 45.4028 102.619 40.2018 107.328 33.7881C112.928 26.1615 112.286 15.7454 106.272 8.44695C100.386 1.30549 89.9698 -1.18436 81.5156 2.51122C79.1328 3.55284 76.8712 4.28764 79.5894 7.5623C89.9056 19.9832 92.9235 34.2804 89.392 51.8522Z" fill="white"/>
</svg>
