<svg width="68" height="51" viewBox="0 0 68 51" fill="none" xmlns="http://www.w3.org/2000/svg">
<g opacity="0.83">
<path opacity="0.83" d="M63.9771 21.9957L55.2946 18.136C54.7238 17.8792 54.4598 17.2086 54.7166 16.6378L55.8153 14.1693C56.0722 13.5986 56.7428 13.3346 57.3135 13.5915L65.996 17.4511C66.5668 17.708 66.8307 18.3786 66.5739 18.9493L65.4753 21.4178C65.2255 21.9957 64.5549 22.2525 63.9771 21.9957Z" fill="#EB5D57"/>
<path opacity="0.6" d="M50.2216 49.6835L4.93289 29.5719C1.42993 28.0166 -0.146798 23.9215 1.40849 20.4185L8.09335 5.35796C9.64863 1.85501 13.7438 0.278319 17.2467 1.8336L62.5354 21.9453C66.0384 23.5006 67.615 27.5957 66.0598 31.0986L59.3749 46.1592C57.8196 49.655 53.7245 51.2317 50.2216 49.6835Z" fill="#EB5D57"/>
<path opacity="0.83" d="M66.0674 31.0919C46.8333 22.5522 27.5991 14.0195 8.36499 5.47971C8.42206 5.25141 9.24249 2.39054 11.818 1.14204C14.3721 -0.0850681 16.3555 1.37747 16.5196 1.49875L65.7749 23.8435C66.0817 24.2145 66.8808 25.2846 67.0021 27.0539C67.1376 29.0587 66.3243 30.6282 66.0674 31.0919Z" fill="#7B64A9"/>
<path opacity="0.83" d="M33.456 42.5069C42.7785 42.5069 50.3359 34.9495 50.3359 25.6271C50.3359 16.3046 42.7785 8.74725 33.456 8.74725C24.1335 8.74725 16.5762 16.3046 16.5762 25.6271C16.5762 34.9495 24.1335 42.5069 33.456 42.5069Z" fill="#F7B7A9"/>
<path opacity="0.83" d="M33.4629 35.4226C38.8649 35.4226 43.244 31.0434 43.244 25.6415C43.244 20.2395 38.8649 15.8603 33.4629 15.8603C28.0609 15.8603 23.6816 20.2395 23.6816 25.6415C23.6816 31.0434 28.0609 35.4226 33.4629 35.4226Z" fill="#EF7A6E"/>
<path opacity="0.83" d="M27.8341 23.9505C28.1266 24.1645 28.7758 22.7162 30.1385 22.3524C31.2086 22.067 31.6224 22.7448 32.3786 22.2953C33.142 21.8459 33.6771 20.5974 33.3917 19.9267C33.0279 19.0849 31.4583 19.3631 30.7092 19.6271C30.6022 19.6628 29.0327 20.2478 28.1979 22.067C27.8769 22.7662 27.5986 23.7793 27.8341 23.9505Z" fill="#F7B7A9"/>
<path opacity="0.83" d="M30.2882 29.551C30.3096 29.4939 30.4523 29.0944 30.7591 28.8447C31.5367 28.224 32.4285 29.3798 33.9624 29.3084C34.2477 29.2942 35.3108 29.2014 36.1811 28.3881C37.5224 27.1253 37.1372 25.3418 38.2787 24.7139C38.8494 24.4 39.5914 24.4928 39.9552 24.928C40.6829 25.7912 39.9409 28.0742 38.9278 29.4369C37.7721 30.9779 36.2525 31.3489 34.9826 31.6556C34.8257 31.6913 31.0801 32.5688 30.3809 30.9707C30.0599 30.2216 30.2882 29.551 30.2882 29.551Z" fill="#F7B7A9"/>
</g>
</svg>
