<svg width="415" height="390" viewBox="0 0 415 390" fill="none" xmlns="http://www.w3.org/2000/svg">
<path d="M367.578 376.105L365.645 380.464L348.601 387.805L394.582 389.938L414.85 371.132L402.073 353.653L368.577 373.707L367.578 376.105Z" fill="url(#paint0_linear)"/>
<path d="M221.966 333.691C221.966 333.691 222.251 337.793 221.966 337.793C221.68 337.793 196.411 332.65 196.411 332.65L258.993 364.675C258.993 364.675 259.614 354.73 258.993 354.388C258.372 354.045 221.966 333.691 221.966 333.691Z" fill="url(#paint1_linear)"/>
<path d="M402.072 353.653C342.579 399.926 315.918 385.165 315.918 385.165L291.918 345.384C291.776 345.491 291.626 345.591 291.476 345.698C291.469 345.705 291.462 345.713 291.455 345.713C283.864 351.135 277.978 364.462 277.799 364.875C277.792 364.882 277.792 364.882 277.792 364.882L206.692 325.144L204.794 279.164C199.443 225.613 271.621 224.293 271.621 224.293L276.615 218.786C276.615 218.786 306.651 191.682 321.462 206.222C336.265 220.762 342.793 238.398 342.793 238.398L402.072 353.653Z" fill="url(#paint2_linear)"/>
<path d="M290.941 344.692L263.623 278.693C263.623 278.693 253.956 251.275 238.853 255.206" stroke="#33224D" stroke-width="2" stroke-miterlimit="10" stroke-linecap="round"/>
<path d="M331.342 198.403C302.455 201.221 272.762 214.591 265.849 217.858C264.622 216.553 263.987 215.275 263.987 215.275C251.202 197.204 265.378 147.849 265.378 147.849L274.974 142.898C274.638 150.788 270.522 167.896 287.987 178.163C302.134 186.075 323.558 175.78 323.58 172.826C326.762 181.48 329.466 188.864 330.671 192.217C331.563 194.672 331.684 196.712 331.342 198.403Z" fill="#31244C"/>
<path d="M323.58 172.819C323.558 175.78 302.134 186.075 287.987 178.163C270.522 167.904 274.638 150.788 274.974 142.898L306.543 126.596C306.543 126.596 316.31 153.029 323.58 172.819Z" fill="url(#paint3_linear)"/>
<path d="M331.343 198.403C330.151 204.274 323.331 205.872 323.331 205.872C323.331 205.872 284.699 213.214 276.622 218.8C271.564 222.288 267.89 220.034 265.85 217.858C272.763 214.591 302.456 201.221 331.343 198.403Z" fill="#23204A"/>
<path d="M218.277 165.371C208.532 163.873 200.47 160.734 198.401 154.677L197.688 143.882C197.688 143.882 206.52 145.866 217.635 147.078L218.277 165.371Z" fill="#FAE6E4"/>
<path d="M265.899 144.653L262.596 165.036C262.596 165.036 237.248 168.303 218.285 165.371L217.635 147.071C230.541 148.477 246.537 148.855 255.348 143.875C271.735 134.622 265.899 144.653 265.899 144.653Z" fill="#624259"/>
<path d="M242.206 191.497C237.305 193.109 229.978 191.475 229.978 191.475C229.978 191.475 203.21 156.218 231.305 163.487C233.438 164.037 235.521 164.422 237.554 164.665L242.206 191.497Z" fill="#FAE6E4"/>
<path d="M303.576 159.856C287.16 191.582 242.87 195.328 242.87 195.328L242.278 191.475C242.256 191.483 242.228 191.49 242.206 191.497L237.555 164.665C262.247 167.59 278.898 149.055 278.898 149.055L303.576 159.856Z" fill="#624259"/>
<path d="M199.457 170.558C187.065 172.484 174.059 168.189 174.059 168.189L161.809 145.887C162.351 145.423 163.022 144.924 163.792 144.517C172.075 140.194 180.244 141.856 181.771 141.878C184.004 141.913 186.537 142.662 190.011 142.427C193.428 142.191 195.711 142.035 197.474 140.579L199.457 170.558Z" fill="#624259"/>
<path d="M208.753 188.386C203.253 191.547 200.905 192.966 199.464 192.246C197.959 191.49 198.109 189.699 196.018 188.607C193.528 187.309 191.788 188.572 189.79 187.288C188.035 186.153 188.72 184.698 186.844 182.522C184.646 179.975 183.162 180.938 181.607 179.219C178.546 175.83 181.543 167.904 181.864 167.162C184.825 160.306 192.679 154.092 200.299 154.677C204.023 154.962 205.55 154.784 213.554 158.386C216.287 159.613 220.375 161.59 223.286 161.654C227.138 161.74 230.277 160.862 232.318 160.113L230.777 195C230.784 195 214.247 185.233 208.753 188.386Z" fill="#624259"/>
<path d="M196.545 165.728L153.488 140.868L149.632 147.547L192.688 172.406L196.545 165.728Z" fill="#EDE5F3"/>
<path d="M54.4161 80.0629L49.5724 86.8966L54.6075 90.4654L59.4511 83.6317L54.4161 80.0629Z" fill="#F59D24"/>
<path d="M13.4319 55.0177L8.58826 61.8514L11.1029 63.6338L15.9466 56.8L13.4319 55.0177Z" fill="#F59D24"/>
<path d="M12.7689 57.8034L5.93518 52.9598L4.15284 55.4744L10.9866 60.3181L12.7689 57.8034Z" fill="#F59D24"/>
<path d="M151.079 136.727L58.2902 85.2667L56.1 88.3559L145.814 145.837L151.079 136.727Z" fill="#F0C381"/>
<path d="M53.2676 81.6781L14.885 58.2989L12.2595 61.9945L50.7278 85.2666L53.2676 81.6781Z" fill="#F0C381"/>
<path d="M58.5256 87.3356L147.434 140.493" stroke="#F9B03C" stroke-width="2" stroke-miterlimit="10" stroke-linecap="round"/>
<path d="M153.197 132.732L142.431 151.379L146.391 153.665L157.157 135.019L153.197 132.732Z" fill="#F59D24"/>
<path d="M167.16 143.162C167.16 143.162 160.568 144.318 159.855 149.44C159.141 154.562 164.428 153.685 164.428 153.685C164.428 153.685 170.378 152.529 172.14 149.333C173.902 146.137 167.16 143.162 167.16 143.162Z" fill="#624259"/>
<path d="M185.196 171.92C185.196 171.92 192.358 171.257 193.842 161.618L202.931 162.774L192.523 181.395L185.196 171.92Z" fill="#624259"/>
<path d="M177.819 161.611C177.819 162.574 177.54 163.552 176.963 164.401L172.81 170.479C171.276 172.726 168.173 173.311 165.926 171.77C164.52 170.814 163.771 169.245 163.771 167.661C163.771 167.654 163.771 167.64 163.771 167.633C163.778 166.912 163.072 166.398 162.401 166.669C160.91 167.269 159.155 167.147 157.743 166.177C156.337 165.221 155.588 163.659 155.588 162.068C155.588 162.061 155.588 162.046 155.588 162.039C155.595 161.319 154.889 160.805 154.225 161.076C152.734 161.675 150.979 161.554 149.56 160.577C148.161 159.621 147.405 158.058 147.405 156.474C147.405 155.511 147.683 154.534 148.261 153.685L152.413 147.614C153.947 145.359 157.051 144.781 159.305 146.315C160.703 147.271 161.46 148.834 161.46 150.425C161.46 151.388 161.181 152.358 160.604 153.207C162.137 150.96 165.241 150.375 167.495 151.916C168.894 152.872 169.65 154.434 169.65 156.018C169.65 156.981 169.372 157.958 168.794 158.807C170.328 156.553 173.431 155.975 175.685 157.516C177.07 158.465 177.819 160.027 177.819 161.611Z" fill="#624259"/>
<path d="M287.987 178.163C287.987 178.163 300.265 169.887 303.576 159.856" stroke="#33224D" stroke-width="2" stroke-miterlimit="10" stroke-linecap="round"/>
<path d="M360.429 196.762L357.782 201.385C354.679 197.704 350.163 192.011 345.447 184.569C337.535 172.106 334.339 163.081 329.466 152.472C325.435 143.668 319.1 131.248 309.419 116.779L309.747 115.345C310.432 116.18 311.095 117.007 311.752 117.828C311.759 117.835 311.759 117.842 311.759 117.842C319.171 129.535 321.54 131.947 324.287 136.798C325.906 139.659 326.562 141.236 330.023 145.509C330.287 146.008 330.543 146.486 330.793 146.964C337.036 158.886 340.289 168.424 349.856 182.657C354.037 188.893 357.875 193.709 360.429 196.762Z" fill="#493141"/>
<path d="M330.022 145.509C326.562 141.235 325.913 139.659 324.286 136.798C321.532 131.947 319.171 129.528 311.758 117.842C320.362 128.679 326.163 138.31 330.022 145.509Z" fill="#493141"/>
<path d="M370.966 189.307L366.186 192.467L365.416 190.377C363.968 186.795 360.158 181.188 356.705 175.309C353.195 169.338 348.907 166.52 344.669 161.946C336.986 153.664 332.677 148.791 330.023 145.509C326.562 141.236 325.913 139.659 324.287 136.798C321.533 131.947 319.171 129.528 311.759 117.842C311.759 117.835 311.752 117.828 311.752 117.828C311.031 116.693 310.218 115.916 309.747 115.345L310.41 114.767V114.796C312.415 117.114 315.59 120.81 319.45 125.369C337.257 146.465 336.508 147.071 343.357 153.906C351.476 162.018 355.485 164.879 360.429 171.863C364.674 177.856 368.434 184.056 368.434 184.056C369.525 186.168 370.374 187.98 370.966 189.307Z" fill="#493141"/>
<path d="M260.277 124.819C243.726 106.249 250.189 91.6661 257.73 83.1263C258.479 82.2773 259.243 81.4854 259.992 80.7577C260.142 80.6079 260.291 80.4652 260.448 80.3297C260.891 79.9016 261.333 79.5021 261.761 79.1311C261.911 79.0027 262.054 78.8885 262.189 78.7601C262.753 78.275 263.295 77.8398 263.809 77.4331C263.809 77.4331 263.816 77.4403 263.816 77.4331C264.073 77.2334 264.315 77.0479 264.551 76.8695C266.398 75.4926 267.69 74.7435 267.775 74.6935C267.79 74.7078 267.804 74.7292 267.825 74.7435C268.303 75.2643 268.746 75.778 269.174 76.2916C269.252 76.3915 269.338 76.4843 269.416 76.5841C269.423 76.5913 269.423 76.5913 269.431 76.5984C271.086 78.6174 272.406 80.6293 273.447 82.6198C273.79 83.2833 274.103 83.9396 274.389 84.6031C274.767 85.4806 275.088 86.351 275.359 87.2214C281.794 107.668 260.277 124.819 260.277 124.819Z" fill="url(#paint4_linear)"/>
<path d="M275.359 87.2143C266.491 88.4628 260.719 84.8457 257.73 83.1263C258.479 82.2773 259.242 81.4854 259.984 80.7577C260.134 80.6079 260.284 80.4652 260.441 80.3297C260.891 79.9087 261.333 79.5092 261.754 79.1311C261.904 79.0027 262.046 78.8885 262.182 78.7601C262.745 78.2821 263.288 77.8398 263.801 77.4331C263.801 77.4331 263.808 77.4403 263.808 77.4331C264.065 77.2334 264.308 77.0479 264.543 76.8695C266.391 75.4926 267.682 74.7435 267.768 74.6935C267.782 74.7078 267.797 74.7292 267.818 74.7435C268.296 75.2643 268.738 75.778 269.166 76.2916C269.223 76.4058 269.302 76.5057 269.409 76.5841C269.416 76.5913 269.416 76.5913 269.423 76.5984H269.43C271.085 78.6174 272.405 80.6293 273.44 82.6198C273.782 83.2833 274.103 83.9396 274.382 84.6031C274.76 85.4735 275.088 86.3439 275.359 87.2143Z" fill="#324F4D"/>
<path d="M258.073 95.3975L257.574 95.3047C257.117 95.2191 256.81 94.7697 256.903 94.3131L257.631 90.4891C257.716 90.0325 258.166 89.7257 258.622 89.8184L259.122 89.9112C259.578 89.9968 259.885 90.4463 259.792 90.9029L259.065 94.7269C258.972 95.1835 258.53 95.4902 258.073 95.3975Z" fill="#30244C"/>
<path d="M256.653 103.331C256.653 103.859 256.596 104.365 256.489 104.836C256.097 106.613 255.019 107.882 253.749 107.882C252.629 107.882 251.659 106.891 251.174 105.435C250.96 104.808 250.846 104.087 250.846 103.331C250.846 100.82 252.144 98.7791 253.749 98.7791C255.355 98.7791 256.653 100.82 256.653 103.331Z" fill="#59211B"/>
<path d="M256.489 104.836C256.097 106.613 255.019 107.882 253.749 107.882C252.629 107.882 251.659 106.891 251.174 105.435C251.58 105.171 252.023 104.957 252.394 104.822C253.714 104.33 255.554 104.258 256.489 104.836Z" fill="#EA5F51"/>
<path d="M260.819 125.811C248.299 131.354 244.36 105.849 244.36 105.849C238.632 76.1776 268.524 75.5141 268.524 75.5141" stroke="#33224D" stroke-width="2" stroke-miterlimit="10" stroke-linecap="round"/>
<path d="M267.768 74.6865C267.768 74.6865 275.038 106.306 260.277 124.819C260.277 124.819 265.343 142.227 248.049 138.261C248.049 138.261 266.998 158.75 290.47 141.678C290.47 141.678 297.297 135.064 306.444 136.834C306.444 136.834 304.132 111.607 313.164 135.735L318.672 133.309L309.526 114.689C309.526 114.689 327.376 91.0027 315.254 78.8815C315.254 78.8744 297.183 63.1218 267.768 74.6865Z" fill="url(#paint5_linear)"/>
<path d="M258.258 77.69C258.258 79.124 262.938 80.2869 268.724 80.2869" stroke="#33224D" stroke-width="2" stroke-miterlimit="10" stroke-linecap="round"/>
<path d="M251.173 81.6782C251.173 83.4689 259.249 84.9171 269.23 84.9171" stroke="#33224D" stroke-width="2" stroke-miterlimit="10" stroke-linecap="round"/>
<path d="M246.765 86.665C246.765 88.5342 256.945 90.0467 269.523 90.0467" stroke="#33224D" stroke-width="2" stroke-miterlimit="10" stroke-linecap="round"/>
<path d="M244.31 92.608C244.31 94.9623 255.554 96.8672 269.444 96.8672" stroke="#33224D" stroke-width="2" stroke-miterlimit="10" stroke-linecap="round"/>
<path d="M243.625 99.0002C243.625 101.397 254.762 103.331 268.517 103.331" stroke="#33224D" stroke-width="2" stroke-miterlimit="10" stroke-linecap="round"/>
<path d="M244.353 105.849C244.353 108.396 254.634 110.458 267.333 110.458" stroke="#33224D" stroke-width="2" stroke-miterlimit="10" stroke-linecap="round"/>
<path d="M245.802 112.113C245.802 114.218 254.598 115.916 265.471 115.916" stroke="#33224D" stroke-width="2" stroke-miterlimit="10" stroke-linecap="round"/>
<path d="M249.169 120.432C249.169 121.038 255.176 121.538 262.596 121.538" stroke="#33224D" stroke-width="2" stroke-miterlimit="10" stroke-linecap="round"/>
<path d="M310.075 117.435C311.434 117.435 312.536 116.333 312.536 114.974C312.536 113.615 311.434 112.513 310.075 112.513C308.716 112.513 307.614 113.615 307.614 114.974C307.614 116.333 308.716 117.435 310.075 117.435Z" fill="#493141"/>
<path d="M269.524 74.0302C269.524 74.0302 289.892 100.834 308.491 113.105L307.821 114.018C307.821 114.018 277.293 91.709 268.182 76.7555C268.182 76.7555 267.876 75.1645 267.776 74.6936L269.524 74.0302Z" fill="#493141"/>
<path d="M307.813 114.011C307.813 114.011 296.855 118.484 266.063 114.41C266.063 114.41 264.579 118.299 263.252 120.432C263.252 120.432 294.029 127.366 311.772 119.262L310.874 117.435L307.813 114.011Z" fill="#31244C"/>
<path d="M255.875 144.189C255.875 144.189 271.179 154.676 290.463 141.678C290.463 141.678 299.901 134.258 306.436 136.834" stroke="#33224D" stroke-width="2" stroke-miterlimit="10" stroke-linecap="round"/>
<path d="M237.555 164.665C237.555 164.665 261.048 167.896 278.898 149.055" stroke="#33224D" stroke-width="2" stroke-miterlimit="10" stroke-linecap="round"/>
<path d="M185.196 171.92C185.196 171.92 192.301 171.207 193.842 161.618" stroke="#33224D" stroke-width="2" stroke-miterlimit="10" stroke-linecap="round"/>
<path d="M198.023 154.698C198.023 154.698 191.359 154.327 187.593 159.507" stroke="#33224D" stroke-width="2" stroke-miterlimit="10" stroke-linecap="round"/>
<path d="M181.871 167.162C181.871 167.162 181.364 167.861 181.05 169.038L181.871 167.162Z" fill="#23204A"/>
<path d="M181.871 167.162C181.871 167.162 181.364 167.861 181.05 169.038" stroke="#33224D" stroke-width="2" stroke-miterlimit="10" stroke-linecap="round"/>
<path d="M162.801 146.065L161.253 147.271C160.39 147.942 159.769 148.898 159.591 149.975C159.591 149.982 159.591 149.989 159.584 149.996C159.391 151.216 159.619 152.814 161.802 153.457C165.555 154.562 170.713 152.151 172.261 149.04" stroke="#33224D" stroke-width="2" stroke-miterlimit="10" stroke-linecap="round"/>
<path d="M218.099 160.356C218.099 160.356 225.59 164.829 232.325 160.113V162.831" stroke="#33224D" stroke-width="2" stroke-miterlimit="10" stroke-linecap="round"/>
<path d="M168.316 152.629C168.316 152.629 170.706 154.955 168.78 158.8C168.78 158.8 171.526 154.791 175.671 157.509C175.671 157.509 179.495 160.427 177.412 163.587C174.673 167.747 174.887 167.433 174.887 167.433" stroke="#33224D" stroke-width="2" stroke-miterlimit="10" stroke-linecap="round" stroke-linejoin="round"/>
<defs>
<linearGradient id="paint0_linear" x1="388.343" y1="394.566" x2="373.988" y2="361.81" gradientUnits="userSpaceOnUse">
<stop stop-color="#FAE6E4"/>
<stop offset="0.2049" stop-color="#FAE5E1"/>
<stop offset="0.3475" stop-color="#FAE0D8"/>
<stop offset="0.4712" stop-color="#F9D7CA"/>
<stop offset="0.5841" stop-color="#F8CAB5"/>
<stop offset="0.6897" stop-color="#F7B99A"/>
<stop offset="0.7885" stop-color="#F5A37A"/>
<stop offset="0.8302" stop-color="#F3986A"/>
</linearGradient>
<linearGradient id="paint1_linear" x1="226.78" y1="350.429" x2="234.436" y2="335.714" gradientUnits="userSpaceOnUse">
<stop stop-color="#FAE6E4"/>
<stop offset="0.1483" stop-color="#FAE4E0"/>
<stop offset="0.2948" stop-color="#F9DED5"/>
<stop offset="0.4405" stop-color="#F9D2C2"/>
<stop offset="0.5857" stop-color="#F8C2A8"/>
<stop offset="0.7294" stop-color="#F5AC86"/>
<stop offset="0.8302" stop-color="#F3986A"/>
</linearGradient>
<linearGradient id="paint2_linear" x1="214.462" y1="332.834" x2="399.966" y2="267.371" gradientUnits="userSpaceOnUse">
<stop stop-color="#624259"/>
<stop offset="0.2763" stop-color="#604158"/>
<stop offset="0.4832" stop-color="#5A3C57"/>
<stop offset="0.6676" stop-color="#503554"/>
<stop offset="0.8378" stop-color="#422C50"/>
<stop offset="0.9985" stop-color="#32244C"/>
<stop offset="1" stop-color="#252523"/>
</linearGradient>
<linearGradient id="paint3_linear" x1="280.802" y1="167.156" x2="325.091" y2="145.575" gradientUnits="userSpaceOnUse">
<stop offset="0.2009" stop-color="#624259"/>
<stop offset="0.4217" stop-color="#604158"/>
<stop offset="0.587" stop-color="#5A3C57"/>
<stop offset="0.7344" stop-color="#503554"/>
<stop offset="0.8704" stop-color="#422C50"/>
<stop offset="0.9988" stop-color="#32244C"/>
<stop offset="1" stop-color="#252523"/>
</linearGradient>
<linearGradient id="paint4_linear" x1="249.909" y1="99.7546" x2="276.556" y2="99.7546" gradientUnits="userSpaceOnUse">
<stop stop-color="#FAE6E4"/>
<stop offset="0.2125" stop-color="#FAE4E0"/>
<stop offset="0.3718" stop-color="#F9DED7"/>
<stop offset="0.5137" stop-color="#F9D3C7"/>
<stop offset="0.6454" stop-color="#F7C2B0"/>
<stop offset="0.7689" stop-color="#F5AD93"/>
<stop offset="0.8701" stop-color="#F39576"/>
</linearGradient>
<linearGradient id="paint5_linear" x1="268.735" y1="107.93" x2="321.523" y2="114.65" gradientUnits="userSpaceOnUse">
<stop offset="0.5245" stop-color="#624259"/>
<stop offset="0.6559" stop-color="#604158"/>
<stop offset="0.7543" stop-color="#5A3C57"/>
<stop offset="0.842" stop-color="#503554"/>
<stop offset="0.9229" stop-color="#422C50"/>
<stop offset="0.9993" stop-color="#32244C"/>
<stop offset="1" stop-color="#31244C"/>
</linearGradient>
</defs>
</svg>
