<svg width="39" height="41" viewBox="0 0 39 41" fill="none" xmlns="http://www.w3.org/2000/svg">
<g opacity="0.83">
<path opacity="0.83" d="M28.0417 38.023C29.8253 40.52 33.1927 41.1692 35.5542 39.4784C37.9157 37.7876 38.3865 34.3916 36.5958 31.9017" fill="#EF7A6E"/>
<path opacity="0.83" d="M21.2144 24.1397C19.0599 23.0054 19.0028 22.4061 15.8209 19.852C10.4345 15.5286 7.29536 13.4953 7.29536 13.4953C6.8673 13.2171 6.37503 12.9031 5.8685 12.311C4.37742 10.5702 3.98505 7.83064 4.69848 5.66894C6.13248 1.317 11.6473 0.44661 12.2466 0.360998C15.9208 -0.159808 20.3869 1.29559 21.35 4.00664C21.5997 4.71294 21.3785 4.84849 21.5426 6.16834C21.8209 8.43706 22.6912 9.79258 24.1823 12.4251C26.344 16.2491 27.4284 18.1968 27.6995 19.7806C27.8708 20.7509 28.47 24.1754 26.8077 25.3097C25.3381 26.3228 22.8625 25.0172 21.2144 24.1397Z" fill="#7B64A9"/>
<path opacity="0.83" d="M4.57719 12.2825C4.17766 12.5393 0.824544 14.7724 0.86735 18.204C0.888753 19.9019 1.74486 21.1576 2.16578 21.7783C3.2502 23.3835 4.00645 23.2836 7.35245 25.6379C7.52367 25.7592 11.3263 28.4346 13.6592 29.8686C13.9517 30.0469 14.5224 30.3965 15.3429 30.5606C15.9921 30.689 16.2061 30.5892 17.3048 30.5963C19.174 30.6034 19.5093 30.8959 19.8946 30.5606C20.2941 30.2182 20.1942 29.6902 20.287 28.2634C20.3583 27.1575 20.5081 26.2515 20.6294 25.6237" fill="#7B64A9"/>
<path opacity="0.83" d="M22.5483 7.03151C22.5269 6.37515 22.5412 4.17778 24.0893 2.33713C24.3247 2.05889 25.1523 1.12429 26.5935 0.546412C28.8051 -0.338245 32.0798 -0.245499 33.5494 1.54522C34.1273 2.24438 33.9489 2.6225 34.3841 5.12665C34.8907 8.07312 35.4258 9.24315 36.3604 14.0303C36.4745 14.6296 36.6529 15.5784 36.4888 16.7556C36.3604 17.6973 36.0678 18.3965 35.7254 19.2169C35.1903 20.5083 34.9192 21.1575 34.5268 21.3216C33.7135 21.664 32.9929 20.8293 30.5459 20.0445C29.8824 19.8305 29.333 19.7021 28.9834 19.6307" fill="#7B64A9"/>
<path opacity="0.83" d="M9.2002 21.7211C12.3821 23.9327 15.7495 26.4797 19.2025 29.4119C22.5271 32.2371 25.4879 35.0266 28.099 37.6948" stroke="#F7B7A9" stroke-width="4" stroke-miterlimit="10"/>
<path opacity="0.83" d="M18.0471 14.33C20.4871 17.148 23.034 20.3656 25.5667 23.9898C28.1921 27.7425 30.3966 31.3667 32.2516 34.727" stroke="#F7B7A9" stroke-width="4" stroke-miterlimit="10"/>
<path opacity="0.83" d="M28.9055 9.00775C30.5036 14.0589 32.1659 19.1599 33.9067 24.3109C34.7557 26.8222 35.6047 29.312 36.4679 31.7734" stroke="#F7B7A9" stroke-width="4" stroke-miterlimit="10"/>
<path opacity="0.83" d="M24.3679 34.1064C25.4951 32.972 27.186 31.4809 29.4618 30.0755C31.6877 28.7057 33.7139 27.8995 35.1835 27.4144" stroke="#F7B7A9" stroke-width="4" stroke-miterlimit="10"/>
<path opacity="0.83" d="M27.7136 37.966C30.7386 35.897 33.7635 33.8209 36.7956 31.752" stroke="#1F3361" stroke-miterlimit="10"/>
</g>
</svg>
