<svg width="498" height="689" viewBox="0 0 498 689" fill="none" xmlns="http://www.w3.org/2000/svg">
<path d="M456.902 243.724C456.924 243.724 456.946 243.702 456.967 243.702C455.431 246.556 453.806 249.322 452.138 252.001C452.357 248.444 453.609 245.239 456.902 243.724Z" fill="#F8AA19"/>
<path d="M463.334 142.979C463.158 143.33 463.027 143.594 462.939 143.747C463.005 143.594 463.136 143.33 463.334 142.979Z" fill="#F8AA19"/>
<path d="M456.902 243.724C456.924 243.724 456.946 243.702 456.967 243.702C455.431 246.556 453.806 249.322 452.138 252.001C452.357 248.444 453.609 245.239 456.902 243.724Z" fill="#F8AA19"/>
<path d="M475.694 269.585C475.738 269.519 475.869 269.344 476.045 269.124C475.869 269.366 475.759 269.519 475.694 269.585Z" fill="#F8AA19"/>
<path d="M44.5928 436.169C44.7025 432.305 44.9879 428.507 45.4051 424.797C46.4149 428.749 46.7223 433.161 44.5928 436.169Z" fill="#F8AA19"/>
<path d="M45.4051 424.797C46.4149 428.749 46.7223 433.161 44.5928 436.169C44.7025 432.305 44.9879 428.507 45.4051 424.797Z" fill="#F8AA19"/>
<path d="M71.0901 512.524C71.2439 511.624 71.3537 511.096 71.3537 511.096C71.3537 511.096 71.2658 511.624 71.0901 512.524Z" fill="#F8AA19"/>
<path d="M99.981 525.3C99.3004 526.178 98.554 526.727 97.7417 527.012C97.9832 522.556 98.3344 517.858 98.8394 512.896C101.342 516.87 102.879 521.568 99.981 525.3Z" fill="#F8AA19"/>
<path d="M495.825 261.287C490.556 252.703 480.26 263.943 476.813 268.136C480.26 263.57 489.81 249.608 482.214 243.746C473.059 236.699 468.01 262.78 468.01 262.78C468.01 262.78 466.231 239.575 456.967 243.702C455.43 246.556 453.806 249.322 452.137 252.001C451.676 258.499 454.662 266.073 454.662 266.073C454.662 266.073 437.253 289.651 397.319 306.994C405.442 301.835 432.708 283.021 452.137 252.001C452.357 248.444 453.608 245.239 456.901 243.724C456.923 243.724 456.945 243.702 456.967 243.702C469.832 219.883 477.428 189.784 469.722 153.956C469.722 153.956 489.305 141.245 481.182 132.134C474.53 124.67 466.473 137.337 463.773 142.145C466.407 136.92 473.125 121.685 464.673 117.294C454.42 112.003 454.091 138.545 454.091 138.545C454.091 138.545 448.186 115.911 439.755 121.772C431.325 127.634 441.556 144.143 441.556 144.143C441.556 144.143 419.646 188.709 353.017 215.141C347.375 147.897 296.882 126.207 265.467 119.204C258.924 117.733 252.272 116.899 245.599 116.679V28.8212C277.651 26.6917 271.328 0.962158 271.328 0.962158C249.265 4.86988 242.767 13.9367 241.142 20.7203C239.517 13.9367 232.997 4.84793 210.956 0.962158C210.956 0.962158 204.787 26.1648 235.72 28.7553V116.745C229.638 117.074 223.557 117.887 217.542 119.182C129.333 138.084 125.03 218.214 126.062 244.668C116.885 246.907 107.599 250.113 98.7954 254.701C98.7954 254.701 -0.58813 303.789 14.472 404.204C14.472 404.204 -5.85697 415.686 1.67308 425.28C7.68834 432.941 16.2283 421.635 19.4554 416.762C16.4039 422.118 9.269 436.344 17.2381 441.13C27.1172 447.058 29.115 420.582 29.115 420.582C29.115 420.582 33.5935 443.523 42.3749 438.21C43.3189 437.64 44.0434 436.959 44.5922 436.169C44.702 432.305 44.9874 428.507 45.4045 424.797C44.219 419.945 42.0017 415.774 42.0017 415.774C42.0017 415.774 44.1092 412.108 48.7853 406.334C47.2925 412.239 46.129 418.408 45.4045 424.797C46.4143 428.748 46.7217 433.161 44.5922 436.169C44.0214 457.222 48.4999 480.163 61.7598 503.566C61.7598 503.566 46.8973 521.568 57.3691 527.825C65.9091 532.918 69.8168 518.582 70.9803 513.116C70.0363 518.933 68.2142 535.398 77.5664 537.023C88.6529 538.977 81.6717 514.872 81.3204 513.643C81.8693 514.499 91.3532 529.295 97.7417 527.012C97.9832 522.556 98.3344 517.858 98.8393 512.896C95.8976 508.198 91.5947 504.488 91.5947 504.488C91.5947 504.488 93.9218 489.45 105.425 468.331C102.198 485.125 100.091 499.9 98.8393 512.896C101.342 516.87 102.879 521.568 99.9809 525.3C99.3004 526.178 98.5539 526.727 97.7417 527.012C96.0073 557.989 99.5199 576.847 102.989 587.516C99.9809 593.817 98.7954 598.91 98.2246 600.601C95.7 607.757 95.1072 611.138 92.7802 616.692C81.3204 644.112 85.6233 672.015 102.374 679.018C117.346 685.275 137.192 672.718 149.42 650.391C150.298 669.82 158.663 685.1 171.681 688.041C189.398 692.015 209.727 672.103 216.269 643.124C217.696 636.868 220.659 626.286 220.659 626.286C220.659 626.286 220.857 625.54 221.164 624.179C237.981 626.637 254.248 624.201 266.915 620.842C267.267 622.488 267.508 623.41 267.508 623.41C267.508 623.41 270.472 633.992 271.899 640.249C278.441 669.227 298.77 689.139 316.487 685.165C329.505 682.224 337.869 666.944 338.747 647.515C350.975 669.842 370.821 682.399 385.794 676.143C402.544 669.139 406.847 641.236 395.387 613.817C393.06 608.262 392.468 604.881 389.965 597.724C389.416 596.078 388.253 591.204 385.399 585.101C396.946 519.328 387.309 456.629 378.791 419.747C379.054 419.66 379.317 419.572 379.581 419.462C379.581 419.462 483.992 382.229 480.655 280.738C480.655 280.738 502.191 271.693 495.825 261.287ZM463.334 142.979C463.158 143.331 463.026 143.594 462.938 143.748C463.004 143.594 463.136 143.331 463.334 142.979ZM71.0901 512.523C71.2438 511.623 71.3535 511.096 71.3535 511.096C71.3535 511.096 71.2657 511.623 71.0901 512.523ZM475.693 269.585C475.737 269.52 475.869 269.344 476.045 269.124C475.869 269.366 475.759 269.52 475.693 269.585Z" fill="url(#paint0_linear)"/>
<path d="M99.981 525.3C99.3004 526.178 98.554 526.727 97.7417 527.012C97.9832 522.556 98.3344 517.858 98.8394 512.896C101.342 516.87 102.879 521.568 99.981 525.3Z" fill="#F8AA19"/>
<path d="M480.655 280.847C483.992 382.338 379.581 419.572 379.581 419.572C379.318 419.681 379.054 419.769 378.791 419.857L351.854 329.233L397.32 307.104C437.253 289.76 454.662 266.182 454.662 266.182C454.662 266.182 451.677 258.608 452.138 252.11C432.709 283.13 405.443 301.945 397.32 307.104L327.2 335.402L353.018 215.25C419.646 188.818 441.556 144.253 441.556 144.253C441.556 144.253 431.326 127.743 439.756 121.882C448.186 116.02 454.092 138.654 454.092 138.654C454.092 138.654 454.421 112.113 464.673 117.403C473.125 121.794 466.407 137.03 463.773 142.255C466.473 137.447 474.53 124.78 481.182 132.244C489.305 141.355 469.722 154.066 469.722 154.066C477.428 189.894 469.832 219.992 456.967 243.812C466.232 239.684 468.01 262.889 468.01 262.889C468.01 262.889 473.059 236.809 482.214 243.856C489.81 249.717 480.26 263.68 476.813 268.246C480.26 264.053 490.556 252.813 495.825 261.396C502.192 271.802 480.655 280.847 480.655 280.847Z" fill="url(#paint1_linear)"/>
<path d="M307.903 605.496C297.233 613.619 266.674 621.105 266.674 621.105C267.025 622.752 267.267 623.674 267.267 623.674C267.267 623.674 270.23 634.256 271.657 640.512C278.199 669.491 298.528 689.403 316.245 685.429C329.263 682.487 337.628 667.208 338.506 647.779C339.362 649.338 340.24 650.83 341.162 652.279C339.845 649.096 318.221 597.593 307.903 605.496Z" fill="url(#paint2_linear)"/>
<path d="M203.47 154.922L195.062 168.885C193.986 170.663 194.733 172.902 196.687 173.824L231.615 190.179C234.161 191.365 236.774 188.599 235.083 186.469L209.529 154.549C207.993 152.617 204.744 152.815 203.47 154.922Z" fill="#EA4E73"/>
<path d="M278.573 154.922L286.981 168.884C288.057 170.663 287.311 172.902 285.357 173.824L250.429 190.179C247.882 191.365 245.27 188.599 246.96 186.469L272.514 154.505C274.051 152.617 277.3 152.814 278.573 154.922Z" fill="#EA4E6E"/>
<path d="M305.269 258.653C316.726 258.653 326.015 252.932 326.015 245.876C326.015 238.819 316.726 233.099 305.269 233.099C293.811 233.099 284.522 238.819 284.522 245.876C284.522 252.932 293.811 258.653 305.269 258.653Z" fill="#EA4E6E"/>
<path d="M175.655 257.313C187.113 257.313 196.401 251.593 196.401 244.536C196.401 237.48 187.113 231.759 175.655 231.759C164.197 231.759 154.909 237.48 154.909 244.536C154.909 251.593 164.197 257.313 175.655 257.313Z" fill="#EA4E6E"/>
<path d="M257.805 349.32L274.468 408.836L241.164 436.498L207.861 408.836L224.523 349.32C207.97 336.938 207.861 314.831 207.861 314.831H274.468C274.468 314.831 274.358 336.938 257.805 349.32Z" fill="#E8482B"/>
<path d="M318.704 288.158C318.704 288.158 307.354 323.569 276.641 337.707C276.641 337.707 271.175 340.869 241.164 315.271C211.11 340.891 205.665 337.707 205.665 337.707C174.953 323.569 163.603 288.158 163.603 288.158C192.164 301.923 226.807 307.06 241.164 308.663C255.544 307.06 290.187 301.901 318.704 288.158Z" fill="#E3E5E6"/>
<path d="M198.882 387.476C198.882 394.282 193.481 399.836 186.741 400.055C186.588 400.077 186.456 400.077 186.302 400.077C180.989 400.077 176.423 396.762 174.579 392.108C174.008 390.681 173.701 389.101 173.701 387.476C173.701 386.708 173.767 385.983 173.899 385.281C174.93 379.353 180.089 374.875 186.302 374.875C192.515 374.875 197.652 379.353 198.684 385.281C198.816 385.983 198.882 386.73 198.882 387.476Z" fill="#E5E6E7" stroke="#32224B" stroke-miterlimit="10"/>
<path d="M198.881 387.477C198.881 394.282 193.481 399.836 186.741 400.056C186.587 400.078 186.456 400.078 186.302 400.078C180.989 400.078 176.423 396.763 174.579 392.109C174.008 390.682 173.701 389.101 173.701 387.477C173.701 386.708 173.767 385.984 173.898 385.281H187.949V381.681H195.303V385.281H198.684C198.816 385.984 198.881 386.73 198.881 387.477Z" fill="#32224B"/>
<path d="M187.948 396.039C187.948 397.531 187.509 398.914 186.719 400.056C186.565 400.078 186.433 400.078 186.28 400.078C180.967 400.078 176.401 396.763 174.557 392.109C175.83 390.111 178.091 388.772 180.66 388.772C184.677 388.772 187.948 392.043 187.948 396.039Z" fill="#E5E6E7"/>
<path d="M192.405 387.477H189.815V390.067H192.405V387.477Z" fill="#E5E6E7" stroke="#32224B" stroke-width="0.5" stroke-miterlimit="10"/>
<path d="M194.996 387.476H192.406V390.067H194.996V387.476Z" fill="#E5E6E7" stroke="#32224B" stroke-width="0.5" stroke-miterlimit="10"/>
<path d="M197.587 387.476H194.997V390.067H197.587V387.476Z" fill="#E5E6E7" stroke="#32224B" stroke-width="0.5" stroke-miterlimit="10"/>
<path d="M166.193 357.136C166.193 357.817 166.149 358.497 166.039 359.156C165.074 365.149 159.871 369.738 153.614 369.738C147.335 369.738 142.154 365.149 141.188 359.156C141.078 358.497 141.034 357.817 141.034 357.136C141.034 356.719 141.056 356.302 141.1 355.885C141.605 350.77 145.162 346.555 149.948 345.084C150.321 344.974 150.694 344.864 151.089 344.798C151.901 344.623 152.758 344.535 153.636 344.535C154.272 344.535 154.909 344.579 155.524 344.689C155.919 344.733 156.314 344.82 156.687 344.908C161.781 346.181 165.644 350.55 166.171 355.885C166.171 356.302 166.193 356.719 166.193 357.136Z" fill="#E5E6E7" stroke="#32224B" stroke-miterlimit="10"/>
<path d="M166.193 357.136C166.193 357.816 166.149 358.497 166.039 359.155H141.166C141.056 358.497 141.012 357.816 141.012 357.136C141.012 356.719 141.034 356.301 141.078 355.884H166.149C166.171 356.301 166.193 356.719 166.193 357.136Z" fill="#32224B"/>
<path d="M159.079 361.381L154.338 356.286L152.426 358.065L157.166 363.16L159.079 361.381Z" fill="#32224B"/>
<path d="M150.212 363.259L155.117 357.988L153.204 356.208L148.299 361.48L150.212 363.259Z" fill="#32224B"/>
<path d="M156.226 356.653L155.15 357.136L154.624 355.907L149.904 345.105C150.277 344.996 150.65 344.886 151.045 344.82L153.241 349.825L153.877 351.274L155.919 355.907L156.226 356.653Z" fill="#32224B"/>
<path d="M156.643 344.908L153.877 351.253L153.724 351.626L152.648 351.165L153.241 349.804L155.48 344.689C155.875 344.755 156.27 344.82 156.643 344.908Z" fill="#32224B"/>
<path d="M198.991 357.114C198.991 357.729 198.947 358.344 198.859 358.936C198.816 359.31 198.728 359.683 198.64 360.056C197.323 365.588 192.339 369.716 186.39 369.716C186.017 369.716 185.643 369.694 185.27 369.672C184.941 369.65 184.59 369.606 184.26 369.54C178.311 368.53 173.789 363.349 173.789 357.136C173.789 356.214 173.898 355.314 174.074 354.458C174.14 354.085 174.25 353.711 174.359 353.36C175.962 348.245 180.748 344.535 186.39 344.535C186.785 344.535 187.18 344.557 187.553 344.579C187.927 344.623 188.278 344.667 188.629 344.732C194.513 345.786 198.991 350.923 198.991 357.114Z" fill="#32224B" stroke="#EDEDED" stroke-miterlimit="10"/>
<path d="M198.86 358.936C198.816 359.309 198.728 359.683 198.64 360.056C192.23 359.485 187.202 354.084 187.202 347.498C187.202 346.489 187.334 345.501 187.554 344.557C187.927 344.601 188.278 344.644 188.629 344.71C188.564 345.303 188.498 345.918 188.498 346.532C188.498 352.745 192.954 357.882 198.86 358.936Z" fill="#E5E6E7"/>
<path d="M185.863 365.896C185.863 367.191 185.665 368.464 185.27 369.672C184.941 369.65 184.589 369.606 184.26 369.54C184.436 368.684 184.546 367.784 184.546 366.862C184.546 360.627 180.023 355.468 174.074 354.458C174.14 354.085 174.249 353.711 174.359 353.36C180.813 353.887 185.863 359.309 185.863 365.896Z" fill="#E5E6E7"/>
<path d="M166.193 387.476C166.193 392.218 163.558 396.367 159.695 398.497C159.299 398.716 158.882 398.914 158.465 399.089C156.972 399.704 155.326 400.055 153.614 400.055C152.033 400.055 150.518 399.748 149.135 399.221C148.74 399.089 148.367 398.914 147.993 398.716C143.844 396.653 141.012 392.394 141.012 387.454C141.012 380.495 146.654 374.853 153.614 374.853C160.551 374.875 166.193 380.517 166.193 387.476Z" fill="#32224B" stroke="#EDEDED" stroke-miterlimit="10"/>
<path d="M148.366 398.409C146.149 390.55 146.676 387.696 147.291 386.181C147.62 385.391 148.41 384.886 149.244 384.908C150.693 384.93 152.713 385.698 152.911 388.069C152.998 389.035 152.45 390.33 150.935 390.33C149.705 390.33 149.135 388.574 149.442 387.301C149.925 385.281 153.503 383.986 155.787 385.105C156.138 385.281 158.311 385.632 158.311 387.872C158.311 389.496 157.323 390.33 156.335 390.33C155.084 390.33 154.425 388.75 154.557 387.586C154.711 386.159 156.116 385.259 158.07 385.193C159.145 385.149 160.177 385.764 160.594 386.752C161.297 388.354 161.538 391.648 159.233 398.343" stroke="#EDEDED" stroke-width="0.75" stroke-miterlimit="10"/>
<path d="M149.114 399.244C148.718 399.112 148.345 398.936 147.971 398.738L147.884 398.453L148.345 398.321L148.784 398.189C148.784 398.211 148.982 398.87 149.114 399.244Z" fill="#EDEDED"/>
<path d="M159.695 398.519C159.3 398.739 158.883 398.937 158.465 399.112L158.948 397.816L159.322 398.168L159.695 398.519Z" fill="#EDEDED"/>
<path d="M153.921 380.824V377.619" stroke="#EDEDED" stroke-width="0.75" stroke-miterlimit="10" stroke-linecap="round" stroke-linejoin="round"/>
<path d="M149.947 381.461L148.191 378.409" stroke="#EDEDED" stroke-width="0.75" stroke-miterlimit="10" stroke-linecap="round" stroke-linejoin="round"/>
<path d="M159.41 378.409L157.675 381.417" stroke="#EDEDED" stroke-width="0.75" stroke-miterlimit="10" stroke-linecap="round" stroke-linejoin="round"/>
<path d="M286.696 320.562L286.454 315.6L285.027 315.622L283.886 312.571L284.83 311.517L280.988 307.829L279.912 308.948L277.146 307.851L277.124 306.38L271.307 306.489L271.328 307.96L268.562 309.212L267.531 308.268L263.776 312.11L265.028 313.01L263.886 316.017L262.306 316.039L262.218 321.11L263.886 321.067L264.962 324.052L263.974 325.04L267.706 328.904L268.76 327.697L271.746 328.97L271.768 330.55L277.805 330.441L277.739 328.816L280.615 327.718L281.537 328.75L285.313 324.689L284.237 323.635L285.313 320.627L286.696 320.562ZM274.468 324.162C271.307 324.162 268.76 321.615 268.76 318.454C268.76 315.293 271.307 312.746 274.468 312.746C277.607 312.746 280.176 315.293 280.176 318.454C280.176 321.593 277.607 324.162 274.468 324.162Z" fill="#EA572A"/>
<path d="M48.8074 406.29C48.8074 406.29 60.5525 360.758 82.0011 339.617" stroke="#32224B" stroke-width="3" stroke-miterlimit="10" stroke-linecap="round"/>
<path d="M45.4268 424.797C45.4268 424.797 48.3466 433.315 44.6145 436.081" stroke="#32224B" stroke-width="3" stroke-miterlimit="10" stroke-linecap="round"/>
<path d="M100.376 514.806C100.376 514.806 106.392 520.69 99.3884 526.727" stroke="#32224B" stroke-width="3" stroke-miterlimit="10" stroke-linecap="round"/>
<path d="M397.297 307.016C397.297 307.016 379.142 321.11 344.763 326.291" stroke="#32224B" stroke-width="3" stroke-miterlimit="10" stroke-linecap="round"/>
<path d="M126.457 247.588C126.457 247.588 126.962 255.162 128.938 260.475" stroke="#32224B" stroke-width="3" stroke-miterlimit="10" stroke-linecap="round"/>
<path d="M353.017 215.14C353.017 215.14 355.607 229.3 349.987 240.036" stroke="#32224B" stroke-width="3" stroke-miterlimit="10" stroke-linecap="round"/>
<path d="M187.817 611.731C187.817 611.731 235.654 644.244 299.166 607.999" stroke="#32224B" stroke-width="3" stroke-miterlimit="10" stroke-linecap="round"/>
<path d="M105.097 470.153C105.097 470.153 108.434 448.638 116.03 422.097" stroke="#32224B" stroke-width="3" stroke-miterlimit="10" stroke-linecap="round"/>
<path d="M228.256 349.255L253.985 349.057" stroke="#32224B" stroke-width="3" stroke-miterlimit="10" stroke-linecap="round"/>
<path d="M306.777 189.399L285.533 208.261L314.516 210.868" stroke="#32224B" stroke-width="8" stroke-miterlimit="10" stroke-linecap="round" stroke-linejoin="round"/>
<path d="M167.544 210.182L195.06 203.91L171.937 187.496" stroke="#32224B" stroke-width="8" stroke-miterlimit="10" stroke-linecap="round" stroke-linejoin="round"/>
<path d="M269.967 235.159C269.967 235.159 274.565 217.276 256.895 221.052C239.225 224.829 226.467 222.881 226.467 222.881C226.467 222.881 213.395 221.219 214.791 235.159C216.163 249.1 231.835 253.945 242.596 253.802C253.38 253.66 267.367 245.918 269.967 235.159Z" fill="#31214B"/>
<mask id="mask0" style="mask-type:alpha" maskUnits="userSpaceOnUse" x="223" y="229" width="40" height="18">
<path d="M261.988 236.849C261.988 236.849 265.161 227.793 252.968 229.705C240.776 231.617 231.972 230.631 231.972 230.631C231.972 230.631 222.952 229.789 223.915 236.849C224.862 243.908 235.676 246.361 243.101 246.289C250.543 246.217 260.194 242.297 261.988 236.849Z" fill="#F8AA19"/>
</mask>
<g mask="url(#mask0)">
<path d="M261.988 236.849C261.988 236.849 265.161 227.793 252.968 229.705C240.776 231.617 231.972 230.631 231.972 230.631C231.972 230.631 222.952 229.789 223.915 236.849C224.862 243.908 235.676 246.361 243.101 246.289C250.543 246.217 260.194 242.297 261.988 236.849Z" fill="#F59E35"/>
<path d="M234.676 239.069L229.464 230.041L239.888 230.041L234.676 239.069Z" fill="white"/>
</g>
<defs>
<linearGradient id="paint0_linear" x1="-196.457" y1="264.863" x2="418.327" y2="385.698" gradientUnits="userSpaceOnUse">
<stop stop-color="#EA4E6E"/>
<stop offset="0.0657" stop-color="#EB5B6B"/>
<stop offset="0.2781" stop-color="#EF7A5E"/>
<stop offset="0.4831" stop-color="#F2904A"/>
<stop offset="0.6759" stop-color="#F59E34"/>
<stop offset="0.8519" stop-color="#F7A722"/>
<stop offset="0.9955" stop-color="#F8AA19"/>
</linearGradient>
<linearGradient id="paint1_linear" x1="352.949" y1="122.631" x2="420.087" y2="267.729" gradientUnits="userSpaceOnUse">
<stop stop-color="#EA4E6E"/>
<stop offset="0.2312" stop-color="#ED6C66"/>
<stop offset="0.5856" stop-color="#F28F4B"/>
<stop offset="0.8511" stop-color="#F6A22C"/>
<stop offset="0.9955" stop-color="#F8AA19"/>
</linearGradient>
<linearGradient id="paint2_linear" x1="226.467" y1="688.583" x2="321.814" y2="637.388" gradientUnits="userSpaceOnUse">
<stop stop-color="#EA4E6E"/>
<stop offset="0.0392" stop-color="#EA546D"/>
<stop offset="0.3643" stop-color="#EF7D5C"/>
<stop offset="0.6434" stop-color="#F49641"/>
<stop offset="0.8629" stop-color="#F6A428"/>
<stop offset="0.9955" stop-color="#F8AA19"/>
</linearGradient>
</defs>
</svg>
