<svg width="45" height="42" viewBox="0 0 45 42" fill="none" xmlns="http://www.w3.org/2000/svg">
<path opacity="0.6" d="M32.4003 26.6013C33.8913 26.7797 34.4407 24.404 36.7237 23.6192C39.185 22.7631 43.0161 23.9902 43.965 26.744C44.6713 28.7916 43.6796 31.367 42.0031 32.6156C38.5857 35.1625 32.2148 32.4087 29.3682 28.3849C28.2695 26.8368 28.3123 25.9806 27.2493 21.9283C24.8521 12.7607 23.6464 8.1805 20.9639 7.38859C18.4598 6.64662 17.5181 9.9141 10.4265 11.9474C7.16615 12.882 5.95332 12.5966 5.23275 13.7809C4.14833 15.5716 6.50266 17.1554 9.19943 24.7464C9.20657 24.7749 10.3053 27.8641 12.5526 31.3314C13.4444 32.7083 14.0151 33.3718 14.8356 33.4717C16.4551 33.6786 17.0615 31.4384 19.1661 31.0317C21.1423 30.6465 23.5608 31.9877 24.6952 34.128C25.7867 36.1827 25.7368 39.0721 24.2386 40.5061C22.6405 42.04 20.0222 41.3265 15.9342 40.2136C13.2446 39.4788 12.4955 38.7796 12.2315 38.5085C10.9045 37.1601 10.9545 35.6762 10.291 33.3504C10.0556 32.5157 9.09956 30.675 7.20896 27.0365C5.51099 23.769 3.97711 20.4087 2.27201 17.1483C1.2518 15.1935 0.431346 13.6882 0.838003 11.8475C0.987824 11.1555 1.38022 10.1139 2.78568 8.7655C5.3255 6.3327 7.85105 6.09012 11.2541 4.91295C17.9675 2.58716 18.4741 -0.081071 20.7784 0.639496C23.568 1.50988 24.6738 5.99023 26.3432 12.7607C27.4205 17.1269 28.2624 19.2387 29.9461 23.4479C30.4597 24.7392 31.1732 26.4586 32.4003 26.6013Z" fill="#7B64A9"/>
</svg>
