<svg width="39" height="43" viewBox="0 0 39 43" fill="none" xmlns="http://www.w3.org/2000/svg">
<path opacity="0.6" d="M21.4268 31.6535C23.3246 32.5168 25.1295 30.6761 29.3887 30.4978C29.8168 30.4835 37.2722 30.2552 38.4779 34.279C39.0058 36.0554 38.3209 38.6451 36.5231 40.2218C32.6563 43.6035 23.9238 42.0696 19.9215 37.6392C18.7015 36.2908 17.9667 34.7213 17.0892 28.7927C15.1272 15.4943 16.3757 6.76185 13.4007 6.48361C12.352 6.38373 12.0309 7.45388 8.71345 8.85221C4.99647 10.4218 1.07259 10.9069 0.908498 10.2434C0.78008 9.72974 3.05595 9.08766 6.00956 6.59778C9.91917 3.30886 10.2902 0.761899 12.6873 0.262496C14.5351 -0.122757 15.9691 1.04014 16.2545 1.28984C17.5529 2.40993 17.6242 4.09363 17.6528 4.72145C18.0523 13.4039 19.5362 8.4099 19.7859 23.3635C19.8787 28.7784 19.7075 30.8759 21.4268 31.6535Z" fill="#7B64A9"/>
</svg>
