<svg width="640" height="302" viewBox="0 0 640 302" fill="none" xmlns="http://www.w3.org/2000/svg">
<path d="M7.7182 259.244C9.03805 256.155 14.0321 252.61 52.8785 250.305C105.608 247.18 116.609 252.517 141.601 249.77C162.105 247.516 160.507 245.782 207.807 221.211C273.186 187.245 263.063 176.358 292.292 168.795C342.047 155.925 396.86 154.784 432.175 136.513C455.568 124.413 458.122 113.968 490.605 90.9956C501.164 83.526 531.856 66.8744 550.705 76.1633C571.052 86.1942 542.036 157.694 490.812 164.665C443.297 171.135 455.069 217.402 399.885 225.842C340.905 234.859 345.771 215.19 300.383 224.643C254.066 234.281 257.163 264.424 185.734 291.542C137.934 309.691 95.877 297.927 58.1222 288.581C27.1877 280.919 3.43047 269.261 7.7182 259.244Z" fill="#EB5D57"/>
<path d="M9.28052 273.756C32.6098 280.876 64.5359 286.483 93.5227 274.505C117.794 264.474 117.515 251.404 150.59 229.237C163.703 220.448 201.037 195.428 244.549 194.686C273.857 194.186 271.774 205.28 300.896 204.959C338.294 204.546 335.091 178.113 389.112 168.096C416.943 162.931 437.048 166.334 449.033 166.577C488.843 167.376 488.893 187.837 518.943 190.263C561.955 193.73 628.269 124.028 637.651 105.771C652.975 75.9422 590.514 66.4249 532.391 76.0206C504.374 80.6437 485.675 99.2001 441.664 106.57C418.919 110.372 404.658 94.8481 374.337 95.1335C320.872 95.6329 340.092 118.37 266.808 128.365C207.058 136.513 205.275 129.036 176.031 138.967C145.125 149.469 126.084 164.964 90.6475 194.393C68.6952 212.614 39.5515 238.983 9.28052 273.756Z" fill="url(#paint0_linear)"/>
<path d="M0.697754 257.539C23.8486 261.335 80.7021 287.903 103.996 272.814C123.508 260.179 119.827 247.78 144.183 222.474C153.836 212.443 181.339 183.877 220.827 177.621C247.424 173.404 248.437 184.227 274.92 180.21C308.929 175.052 299.077 150.31 345.721 133.894C369.757 125.433 388.984 126.104 399.978 124.805C436.505 120.496 465.82 106.655 493.872 105.129C534.017 102.946 597.52 40.6058 569.518 12.7962C546.93 -9.6341 495.635 -0.23105 452.258 28.028C431.297 41.6831 424.37 64.9696 386.151 77.5902C366.403 84.111 340.684 62.23 313.103 66.3679C264.461 73.6592 287.962 92.8434 223.731 111.692C171.365 127.06 179.406 134.772 155.334 147.949C129.893 161.882 104.966 164.458 80.3597 196.969C65.1208 217.102 50.8949 246.674 0.697754 257.539Z" fill="url(#paint1_linear)"/>
<defs>
<linearGradient id="paint0_linear" x1="16.0241" y1="291.668" x2="627.608" y2="61.6057" gradientUnits="userSpaceOnUse">
<stop offset="0.2145" stop-color="#7B64A9"/>
<stop offset="0.6517" stop-color="#7B64A9" stop-opacity="0.2959"/>
<stop offset="1" stop-color="#7B64A9" stop-opacity="0"/>
</linearGradient>
<linearGradient id="paint1_linear" x1="297.883" y1="172.62" x2="270.937" y2="83.2663" gradientUnits="userSpaceOnUse">
<stop stop-color="#EF7A6E"/>
<stop offset="1" stop-color="#EF7A6E" stop-opacity="0"/>
</linearGradient>
</defs>
</svg>
