<svg width="646" height="285" viewBox="0 0 646 285" fill="none" xmlns="http://www.w3.org/2000/svg">
<path d="M638.529 237.353C637.08 234.321 631.944 230.982 593.033 230.311C540.218 229.391 529.452 235.191 504.368 233.493C483.785 232.102 485.312 230.304 437.02 207.731C370.278 176.533 379.938 165.232 350.409 158.897C300.162 148.124 245.349 149.272 209.292 132.5C185.413 121.391 182.424 111.061 149.007 89.4724C138.141 82.4523 106.779 67.0992 88.3437 77.1657C68.4318 88.0384 100.422 158.262 151.889 163.084C199.632 167.558 189.808 214.273 245.299 220.402C304.607 226.944 298.92 207.496 344.666 215.037C391.339 222.735 389.512 252.977 462.018 277.077C510.532 293.207 552.068 279.695 589.395 268.779C619.987 259.826 643.23 247.184 638.529 237.353Z" fill="#EB5D57"/>
<path d="M637.573 251.921C614.557 260.011 582.902 266.946 553.438 256.194C528.767 247.191 528.496 234.121 494.522 213.36C481.053 205.127 442.698 181.691 399.2 182.768C369.9 183.496 372.447 194.49 343.332 195.389C305.948 196.544 308.038 169.998 253.653 162.25C225.629 158.254 205.689 162.492 193.725 163.241C153.979 165.71 154.793 186.157 124.864 189.831C82.0368 195.096 12.8624 128.226 2.72447 110.383C-13.8414 81.218 48.1701 69.0968 106.65 76.2525C134.838 79.6984 154.293 97.4628 198.576 102.978C221.456 105.831 235.061 89.7221 265.36 88.7376C318.804 87.0039 300.547 110.519 374.188 117.439C434.23 123.075 435.7 115.534 465.329 124.231C496.648 133.427 516.318 148.117 552.952 176.033C575.654 193.327 605.868 218.447 637.573 251.921Z" fill="url(#paint0_linear)"/>
<path d="M645.47 235.362C622.505 240.128 566.807 269.051 542.9 254.946C522.881 243.139 526.034 230.596 500.636 206.333C490.57 196.716 461.897 169.327 422.18 164.725C395.426 161.629 394.87 172.48 368.245 169.577C334.05 165.845 342.861 140.711 295.567 126.264C271.204 118.816 252.019 120.293 240.975 119.458C204.305 116.676 174.426 104.076 146.339 103.727C106.137 103.227 40.0799 43.5986 66.8907 14.6404C88.5148 -8.7174 140.167 -1.46891 184.686 24.9495C206.196 37.7199 214.1 60.6925 252.811 71.7007C272.816 77.3868 297.601 54.4499 325.324 57.4249C374.223 62.6758 351.55 82.8232 416.515 98.9681C469.481 112.131 461.768 120.171 486.368 132.328C512.365 145.184 537.385 146.711 563.326 178.166C579.414 197.657 594.859 226.608 645.47 235.362Z" fill="url(#paint1_linear)"/>
<defs>
<linearGradient id="paint0_linear" x1="631.58" y1="270.108" x2="10.9147" y2="65.8545" gradientUnits="userSpaceOnUse">
<stop offset="0.2145" stop-color="#7B64A9"/>
<stop offset="0.6517" stop-color="#7B64A9" stop-opacity="0.2959"/>
<stop offset="1" stop-color="#7B64A9" stop-opacity="0"/>
</linearGradient>
<linearGradient id="paint1_linear" x1="344.994" y1="162.996" x2="368.171" y2="72.5903" gradientUnits="userSpaceOnUse">
<stop stop-color="#EF7A6E"/>
<stop offset="1" stop-color="#EF7A6E" stop-opacity="0"/>
</linearGradient>
</defs>
</svg>
