<svg width="229" height="342" viewBox="0 0 229 342" fill="none" xmlns="http://www.w3.org/2000/svg">
<path d="M143.182 331.637V331.644L141.584 341.368L105.363 338.928C106.112 335.675 106.847 332.215 107.56 328.59L136.754 331.087L143.182 331.637Z" fill="#E3E5E4"/>
<path d="M167.952 181.095L143.189 331.644L136.761 331.087L107.56 328.59C111.377 309.178 114.716 285.207 117.291 264.096L117.17 263.739V263.732L119.182 250.134L118.34 248.501L120.195 241.709L124.312 232.477L111.591 236.6L108.766 242.222C110.992 243.285 112.276 244.662 113.011 245.939C113.011 245.946 113.011 245.946 113.018 245.946C114.159 247.937 113.981 249.699 113.981 249.699L115.073 257.604C115.073 257.604 114.338 258.539 113.011 260.03C112.868 260.194 112.711 260.365 112.554 260.543C105.077 268.833 82.3761 290.771 64.3476 274.049C42.4452 253.73 107.396 164.644 107.396 164.644C135.705 188.116 167.952 181.095 167.952 181.095Z" fill="url(#paint0_linear)"/>
<path d="M113.988 249.706C113.988 249.706 113.839 246.696 108.773 242.23C114.452 244.933 113.988 249.706 113.988 249.706Z" fill="#393F8F"/>
<path d="M113.988 249.706C113.988 249.706 113.161 250.612 111.677 252.054C110.021 246.325 106.618 245.59 106.618 245.59L108.773 242.222C114.452 244.933 113.988 249.706 113.988 249.706Z" fill="#E3E5E4"/>
<path d="M223.279 230.829C223.25 231.021 223.207 231.221 223.15 231.421L218.149 248.636C217.436 251.105 214.817 252.539 212.349 251.825L212.156 251.768C210.437 251.269 209.224 249.856 208.882 248.215C208.154 248.372 207.376 248.358 206.613 248.13L206.42 248.073C204.43 247.495 203.11 245.69 203.046 243.713C202.211 243.963 201.298 243.992 200.406 243.728L200.213 243.671C197.745 242.95 196.311 240.339 197.024 237.87C197.024 237.87 201.897 221.597 202.083 220.62C205 205.345 209.552 165.043 186.244 129.514L190.361 97.7808C190.361 97.7808 246.094 164.273 223.279 230.829Z" fill="#F6B8AB"/>
<path d="M147.113 249.877L136.754 331.087L107.553 328.59L117.17 263.739V263.732L119.182 250.141L147.113 249.877Z" fill="url(#paint1_linear)"/>
<path d="M116.264 257.083C116.264 257.083 115.943 257.861 115.486 258.817L115.073 257.618C115.073 257.618 114.338 258.553 113.011 260.044C112.868 260.208 112.711 260.379 112.554 260.557C112.411 255.699 111.662 252.068 111.662 252.068C111.662 252.068 111.299 244.163 112.997 245.946C112.997 245.954 113.004 245.946 113.004 245.954C113.004 245.961 113.004 245.961 113.011 245.961C114.716 247.773 116.264 257.083 116.264 257.083Z" fill="#E3E5E4"/>
<path d="M120.195 241.716L118.34 248.508L119.182 250.141L117.17 263.739L115.494 258.817L115.08 257.618L114.709 251.404C114.609 249.799 114.195 248.229 113.475 246.795C113.339 246.524 113.189 246.246 113.025 245.961C113.018 245.961 113.018 245.961 113.018 245.954C112.283 244.676 110.999 243.3 108.773 242.237L111.598 236.615L124.319 232.491L120.195 241.716Z" fill="#393F8F"/>
<path d="M172.226 186.118L166.233 248.95C165.063 249.613 163.907 250.227 162.765 250.791C161.603 251.361 160.454 251.875 159.327 252.346C158.114 252.845 156.922 253.295 155.745 253.687C154.597 254.08 153.462 254.408 152.356 254.7C131.496 260.144 117.905 249.242 117.905 249.242L118.968 244.527C97.4293 246.132 81.7908 225.093 74.5209 212.736C74.5067 212.708 74.4924 212.686 74.4781 212.665C73.8432 211.595 73.2796 210.589 72.7802 209.661C72.773 209.647 72.773 209.64 72.7659 209.633C72.0382 208.299 71.4532 207.157 71.0037 206.251C70.8967 206.044 70.8039 205.852 70.7183 205.666C70.2189 204.646 69.9692 204.061 69.9692 204.061L103.122 167.911L104.257 168.839L104.706 169.21L107.018 171.107L107.988 171.899L109.629 173.241L110.535 173.982L131.909 191.533L158.192 188.001L161.538 187.552L165.041 187.081L168.38 186.632L172.226 186.118Z" fill="#EA5F5A"/>
<path d="M168.587 184.263L168.38 186.639L162.772 250.791C161.609 251.361 160.46 251.875 159.333 252.346L165.048 187.088L165.326 183.921L168.587 184.263Z" fill="#E1D035"/>
<path d="M161.888 183.55L161.539 187.552L155.753 253.687C154.604 254.072 153.47 254.408 152.364 254.693L158.2 188.001L158.621 183.2L161.888 183.55Z" fill="#D9D033"/>
<path d="M74.4782 212.658L109.058 175.566L110.528 173.99L118.747 165.172L116.35 162.924L107.981 171.906L106.461 173.54L72.7803 209.661L74.4782 212.658Z" fill="#DCCE35"/>
<path d="M104.706 169.21L102.78 171.279L70.7183 205.666C70.2189 204.646 69.9692 204.061 69.9692 204.061L103.122 167.911L104.257 168.839L104.706 169.21Z" fill="#DDCD34"/>
<path d="M108.545 170.344C109.451 171.528 110.364 172.656 111.263 173.733C110.336 172.677 109.43 171.55 108.545 170.344Z" fill="#F6B8AB"/>
<path d="M128.128 82.2636C128.528 87.2362 127.315 93.9068 125.175 101.284L131.738 118.021C131.738 118.021 122.285 110.195 109.936 139.645C97.5861 169.088 65.0393 173.076 65.0393 173.076L25.7078 178.934L41.3462 150.668C88.4827 153.329 111.077 112.135 118.097 95.9544C118.697 93.5002 119.546 91.3955 120.58 89.5977C120.58 89.5906 120.58 89.5906 120.58 89.5906C122.571 86.1376 125.239 83.8046 128.128 82.2636Z" fill="url(#paint2_linear)"/>
<path d="M172.518 85.6951L142.033 105.101L137.574 79.6095C138.017 79.5739 138.452 79.5525 138.894 79.5453C140.692 79.4883 143.817 78.5965 143.11 72.9889L168.808 75.7285C168.808 75.7285 163.022 85.0031 169.8 85.3241C170.599 85.3527 171.512 85.4811 172.518 85.6951Z" fill="url(#paint3_linear)"/>
<path d="M194.47 121.538C192.737 129.122 190.489 137.633 188.178 145.859C188.078 145.909 187.985 145.959 187.885 146.002C187.693 146.094 187.5 146.173 187.322 146.251C187.229 146.287 187.136 146.323 187.044 146.358C172.661 151.624 180.123 107.348 183.826 90.8391C190.982 96.4182 197.838 106.791 194.47 121.538Z" fill="url(#paint4_linear)"/>
<path d="M187.9 145.838C187.999 145.795 188.092 145.745 188.192 145.695L185.959 152.879L178.882 180.81C178.882 180.81 178.411 182.151 177.505 183.05C176.071 184.47 174.045 185.112 172.24 185.954C161.075 191.183 131.567 201.699 111.805 178.306C111.791 178.292 111.776 178.27 111.769 178.256C110.863 177.122 109.943 175.937 109.03 174.689L98.0784 161.783C98.0784 161.783 108.623 142.449 117.099 121.852C117.448 120.989 117.805 120.125 118.147 119.262C123.755 105.258 128.164 91.0174 127.45 82.1637V82.1566C127.943 81.8926 128.442 81.6501 128.949 81.436C130.104 80.9224 131.289 80.53 132.459 80.2303C132.972 80.1019 133.479 79.9878 133.985 79.8879L137.546 79.203L142.047 104.929L172.532 85.524H172.539C174.601 85.9663 177.034 86.7939 179.538 88.0638C180.259 88.4277 180.979 88.8201 181.7 89.2553L181.714 89.2695C182.691 89.8545 183.669 90.5109 184.618 91.2386C184.247 92.9723 183.291 97.581 182.485 103.025C178.803 122.501 175.364 150.461 187.058 146.18C187.15 146.144 187.236 146.109 187.336 146.073C187.521 146.009 187.714 145.93 187.9 145.838Z" fill="#EA5F5A"/>
<path d="M179.539 88.071L138.509 114.575L132.459 80.2375C132.973 80.1091 133.48 79.9949 133.986 79.8951C135.178 79.6668 136.383 79.5241 137.589 79.4456L142.048 104.937L172.533 85.5312H172.54C174.602 85.9806 177.035 86.8082 179.539 88.071Z" fill="#D9CC45"/>
<path d="M187.9 145.838C188 145.795 188.093 145.745 188.192 145.695L185.959 152.879C182.863 154.313 166.368 159.15 181.7 89.2624L181.714 89.2767C182.649 89.8332 183.576 90.4539 184.483 91.1388C184.532 91.1744 184.575 91.2101 184.625 91.2458C184.254 92.9794 183.298 97.5882 182.492 103.032C178.811 122.508 175.372 150.468 187.065 146.187C187.158 146.152 187.244 146.116 187.343 146.08C187.522 146.009 187.714 145.93 187.9 145.838Z" fill="#DBCC42"/>
<path d="M128.949 81.4432C128.949 81.4432 130.562 107.605 117.099 121.859C117.449 120.996 117.805 120.133 118.148 119.269C123.755 105.265 128.164 91.0246 127.451 82.1709L128.949 81.4432Z" fill="#E1CF2A"/>
<path d="M136.162 125.59L122.864 137.74L150.288 147.379" stroke="#D6DA2F" stroke-width="2" stroke-miterlimit="10"/>
<path d="M144.081 128.701L134.321 162.054" stroke="#D6DA2F" stroke-width="2" stroke-miterlimit="10"/>
<path d="M171.056 186.553C175.301 178.377 179.781 151.916 179.781 151.916" stroke="#D6DA2F" stroke-width="2" stroke-miterlimit="10" stroke-linecap="round"/>
<path d="M65.1395 178.713C65.268 179.975 65.325 181.224 65.3108 182.458C65.2965 183.45 65.2394 184.441 65.1395 185.412C64.2406 193.973 59.9386 201.671 53.4892 206.95C52.8114 207.507 52.1051 208.042 51.3774 208.541C47.0826 211.502 42.0029 213.457 36.4524 214.027C34.6117 214.22 32.7996 214.249 31.016 214.134C29.7747 214.056 28.5547 213.906 27.3561 213.685C23.8746 213.057 20.5714 211.851 17.5464 210.175C16.7331 209.725 15.9341 209.24 15.1564 208.712C10.3051 205.445 6.36695 200.872 3.86993 195.45C3.41334 194.458 3.00667 193.431 2.65709 192.389C1.90085 190.156 1.38007 187.802 1.12323 185.355C0.181502 176.251 3.12799 167.647 8.62142 161.191C9.26351 160.427 9.94125 159.707 10.6547 159.015C14.336 155.412 18.8948 152.679 24.0387 151.174C25.1017 150.86 26.1933 150.603 27.2991 150.396C28.1267 150.247 28.9614 150.125 29.8103 150.04C35.8388 149.412 41.6533 150.496 46.7686 152.901C47.639 153.307 48.488 153.757 49.3156 154.242C57.8911 159.214 64.0409 168.089 65.1395 178.713Z" fill="url(#paint5_linear)"/>
<path d="M19.1445 192.967C19.1587 193.944 19.1444 194.893 19.123 195.821C18.9732 201.756 18.2241 206.751 17.5535 210.175C16.7402 209.726 15.9411 209.24 15.1635 208.712C15.9697 204.189 16.3763 199.916 16.4691 195.906C16.4905 194.936 16.4905 193.98 16.4833 193.045C16.2693 177.899 11.689 166.884 8.62842 161.184C9.27051 160.42 9.94829 159.7 10.6617 159.008C17.1682 170.708 19.066 182.929 19.1445 192.967Z" fill="white"/>
<path d="M48.1526 191.162C49.287 196.127 50.9992 201.421 53.4891 206.95C52.8113 207.507 52.1051 208.042 51.3774 208.541C50.029 205.744 47.4392 199.752 45.5843 191.833C45.3845 190.984 45.1919 190.113 45.0135 189.221C42.9588 179.026 42.331 166.149 46.7757 152.879C47.6461 153.286 48.4951 153.735 49.3227 154.22C47.4749 159.778 44.4713 172.27 47.6033 188.558C47.7674 189.414 47.9457 190.284 48.1526 191.162Z" fill="white"/>
<path d="M65.3106 182.458C65.2964 183.45 65.2393 184.441 65.1394 185.412C60.8517 187.167 55.0372 189.293 48.1526 191.162C47.3107 191.397 46.4618 191.619 45.5843 191.833C42.0456 192.731 38.2573 193.552 34.2621 194.208C33.0707 194.408 31.8649 194.594 30.6378 194.765C26.9351 195.271 23.0826 195.642 19.1159 195.821C18.2384 195.863 17.3537 195.892 16.4619 195.906C12.3597 195.992 8.14329 195.856 3.86983 195.45C3.41323 194.458 3.00656 193.431 2.65698 192.389C6.13853 192.803 10.8186 193.138 16.4762 193.045C17.3394 193.031 18.2312 193.01 19.1373 192.967V192.974C22.6973 192.838 26.5998 192.525 30.7876 191.961C31.9577 191.804 33.1491 191.626 34.3619 191.433C37.7507 190.877 41.3108 190.163 45.0064 189.236C45.8625 189.029 46.7257 188.8 47.5961 188.565C53.2322 187.038 59.1537 185.048 65.3106 182.458Z" fill="white"/>
<path d="M34.3688 191.426C34.3474 192.346 34.3117 193.281 34.2689 194.215C33.9336 200.615 32.949 207.328 31.0228 214.135C29.7814 214.056 28.5614 213.906 27.3628 213.685C28.7469 208.905 30.1239 202.491 30.6447 194.765C30.7089 193.844 30.7588 192.903 30.7945 191.947C31.2296 180.596 29.7671 166.698 24.0454 151.153C25.1084 150.839 26.2 150.582 27.3058 150.375C30.0597 157.738 34.7897 173.148 34.3688 191.426Z" fill="white"/>
<path d="M117.905 249.243L123.898 207.029C123.898 207.029 118.89 201.193 117.534 195.6" stroke="#33224D" stroke-width="2" stroke-miterlimit="10" stroke-linecap="round"/>
<path d="M106.725 246.703C106.725 246.703 93.434 266.921 89.7883 267.835" stroke="#33224D" stroke-width="2" stroke-miterlimit="10" stroke-linecap="round"/>
<path d="M104.707 169.21C104.707 169.21 116.564 185.183 132.202 190.078C147.841 194.972 169.5 187.181 169.5 187.181" stroke="#33224D" stroke-width="2" stroke-miterlimit="10" stroke-linecap="round"/>
<path d="M220.368 231.171C220.368 231.171 218.356 241.694 214.054 239.832C209.759 237.977 213.633 230.964 213.633 230.964" stroke="#33224D" stroke-width="2" stroke-miterlimit="10" stroke-linecap="round"/>
<path d="M209.31 247.166L211.315 240.453" stroke="#33224D" stroke-width="2" stroke-miterlimit="10" stroke-linecap="round"/>
<path d="M203.31 242.451C203.31 242.451 204.766 240.096 205.836 232.976" stroke="#33224D" stroke-width="2" stroke-miterlimit="10" stroke-linecap="round"/>
<path d="M190.646 136.863C190.646 136.863 189.833 133.695 186.244 129.514" stroke="#33224D" stroke-width="2" stroke-miterlimit="10" stroke-linecap="round"/>
<path d="M129.662 10.8347C129.662 10.8347 120.245 -0.780023 96.7375 44.8511C73.2299 90.4823 60.7163 72.1542 60.7163 72.1542L67.5581 84.0614C67.5581 84.0614 80.3571 87.7427 84.7875 74.4657C84.7875 74.4657 86.3785 91.7237 70.7828 88.1351L75.8054 96.0257C75.8054 96.0257 95.8315 109.567 109.879 86.6868C123.926 63.7999 118.611 54.6894 118.611 54.6894L129.349 27.2008L129.662 10.8347Z" fill="url(#paint6_linear)"/>
<path d="M194.942 37.1105C195.156 39.1723 195.191 41.2056 195.056 43.2032C194.599 50.2162 192.102 56.7655 188.1 62.1805C182.3 70.0211 173.353 75.4931 162.887 76.5776C143.139 78.6251 125.468 64.278 123.42 44.523C121.373 24.7752 135.727 7.10347 155.475 5.05592C175.23 3.00837 192.901 17.3626 194.942 37.1105Z" fill="#F6B8AB"/>
<path d="M147.471 66.409C153.616 65.772 158.064 60.1053 157.406 53.7522C156.747 47.399 151.232 42.7651 145.086 43.402C138.941 44.039 134.493 49.7057 135.151 56.0588C135.81 62.412 141.326 67.0459 147.471 66.409Z" fill="#F29CB5"/>
<path d="M195.055 43.2032C194.599 50.2162 192.102 56.7655 188.099 62.1805C187.999 62.2019 187.899 62.209 187.8 62.2161C181.657 62.8511 176.142 58.2209 175.486 51.8713C175.236 49.4885 175.714 47.1984 176.72 45.2436C177.298 44.1306 178.04 43.1247 178.925 42.2685C180.644 40.5991 182.884 39.4862 185.417 39.2222C189.198 38.8298 192.751 40.435 195.055 43.2032Z" fill="#F29CB5"/>
<path d="M154.119 47.7477L154.076 47.7549C153.277 47.8405 152.556 47.2555 152.478 46.4564L152.007 41.8976C151.921 41.0986 152.506 40.378 153.305 40.2995L153.348 40.2924C154.147 40.2068 154.868 40.7918 154.946 41.5908L155.417 46.1497C155.496 46.9487 154.918 47.6693 154.119 47.7477Z" fill="#30244C"/>
<path d="M177.776 45.2935L177.733 45.3006C176.934 45.3862 176.213 44.8012 176.135 44.0022L175.664 39.4433C175.578 38.6443 176.164 37.9237 176.963 37.8453L177.005 37.8381C177.804 37.7525 178.525 38.3375 178.603 39.1366L179.074 43.6954C179.16 44.4944 178.575 45.215 177.776 45.2935Z" fill="#30244C"/>
<path d="M173.346 51.5361C174.216 51.4433 174.944 52.4493 174.701 53.4481C173.831 57.0723 170.92 59.8904 167.21 60.2756C163.5 60.6609 160.069 58.4992 158.478 55.1318C158.035 54.2043 158.542 53.07 159.412 52.9843L173.346 51.5361Z" fill="#EB5C5A"/>
<path d="M149.831 20.9369C149.831 20.9369 141.784 47.2483 126.11 47.4195L119.139 42.5396C119.139 42.5396 116.607 3.79312 152.706 0.34724C188.799 -3.09151 202.547 41.4053 194.949 37.1176C193.158 36.1045 178.961 28.5706 172.939 16.8275C172.939 16.8275 177.677 25.1676 174.259 32.3019C173.182 34.5421 171.013 36.0546 168.537 36.3114L164.763 36.7038C164.763 36.7038 176.549 33.1794 166.212 16.6777C166.212 16.6777 173.011 32.0308 159.627 36.8179C158.685 37.1532 157.708 37.3673 156.716 37.4814L152.799 37.9309C152.799 37.9309 160.255 35.2341 159.113 17.7122C159.113 17.7122 156.338 37.3316 145.964 38.6514L142.49 38.9582C142.483 38.9511 148.233 38.3875 149.831 20.9369Z" fill="url(#paint7_linear)"/>
<path d="M122.463 56.808C125.07 56.5378 126.847 53.0813 126.433 49.0875C126.019 45.0938 123.571 42.0752 120.964 42.3453C118.358 42.6154 116.581 46.072 116.995 50.0658C117.409 54.0596 119.857 57.0781 122.463 56.808Z" fill="#F6B8AB"/>
<path d="M119.018 46.4064C119.018 46.4064 123.612 43.2744 124.411 53.2553" stroke="#24284C" stroke-width="2" stroke-miterlimit="10" stroke-linecap="round"/>
<path d="M123.455 48.4897C123.455 48.4897 120.216 48.4897 119.994 50.8654" stroke="#24284C" stroke-width="2" stroke-miterlimit="10" stroke-linecap="round"/>
<defs>
<linearGradient id="paint0_linear" x1="50.9032" y1="226.648" x2="161.206" y2="262.455" gradientUnits="userSpaceOnUse">
<stop stop-color="#EE7792"/>
<stop offset="0.0437" stop-color="#F08397"/>
<stop offset="0.1442" stop-color="#F2979F"/>
<stop offset="0.2601" stop-color="#F4A6A5"/>
<stop offset="0.3988" stop-color="#F5B1A9"/>
<stop offset="0.5834" stop-color="#F6B6AA"/>
<stop offset="1" stop-color="#F6B8AB"/>
</linearGradient>
<linearGradient id="paint1_linear" x1="105.134" y1="285.595" x2="151.968" y2="293.283" gradientUnits="userSpaceOnUse">
<stop stop-color="#EE7792"/>
<stop offset="0.0435" stop-color="#F08397"/>
<stop offset="0.1446" stop-color="#F2979F"/>
<stop offset="0.261" stop-color="#F4A6A5"/>
<stop offset="0.4003" stop-color="#F5B1A9"/>
<stop offset="0.5853" stop-color="#F6B6AA"/>
<stop offset="1" stop-color="#F6B8AB"/>
</linearGradient>
<linearGradient id="paint2_linear" x1="45.0739" y1="102.373" x2="128.796" y2="176.532" gradientUnits="userSpaceOnUse">
<stop offset="0.2468" stop-color="#EE7792"/>
<stop offset="0.2689" stop-color="#EF7E95"/>
<stop offset="0.3607" stop-color="#F2949E"/>
<stop offset="0.4634" stop-color="#F4A5A4"/>
<stop offset="0.5819" stop-color="#F5B0A8"/>
<stop offset="0.7299" stop-color="#F6B6AA"/>
<stop offset="1" stop-color="#F6B8AB"/>
</linearGradient>
<linearGradient id="paint3_linear" x1="150.589" y1="103.943" x2="157.617" y2="70.5413" gradientUnits="userSpaceOnUse">
<stop stop-color="#F6B8AB"/>
<stop offset="0.2229" stop-color="#F6B5AA"/>
<stop offset="0.4574" stop-color="#F4ABA6"/>
<stop offset="0.6972" stop-color="#F299A0"/>
<stop offset="0.9391" stop-color="#EF7F96"/>
<stop offset="1" stop-color="#EE7792"/>
</linearGradient>
<linearGradient id="paint4_linear" x1="176.649" y1="117.464" x2="196.463" y2="121.032" gradientUnits="userSpaceOnUse">
<stop stop-color="#EE7792"/>
<stop offset="0.1397" stop-color="#F18D9B"/>
<stop offset="0.3163" stop-color="#F3A1A3"/>
<stop offset="0.507" stop-color="#F5AEA8"/>
<stop offset="0.7199" stop-color="#F6B6AA"/>
<stop offset="1" stop-color="#F6B8AB"/>
</linearGradient>
<linearGradient id="paint5_linear" x1="-6.33498" y1="189.712" x2="78.6335" y2="173.193" gradientUnits="userSpaceOnUse">
<stop stop-color="#A54318"/>
<stop offset="0.094" stop-color="#B7491B"/>
<stop offset="0.2415" stop-color="#CC511E"/>
<stop offset="0.4117" stop-color="#DC5720"/>
<stop offset="0.623" stop-color="#E65A21"/>
<stop offset="1" stop-color="#E95B22"/>
</linearGradient>
<linearGradient id="paint6_linear" x1="64.5769" y1="42.4197" x2="136.43" y2="63.5618" gradientUnits="userSpaceOnUse">
<stop stop-color="#594595"/>
<stop offset="0.2973" stop-color="#584493"/>
<stop offset="0.4842" stop-color="#55408C"/>
<stop offset="0.6406" stop-color="#4F3B7F"/>
<stop offset="0.7802" stop-color="#463370"/>
<stop offset="0.9074" stop-color="#3C2B5C"/>
<stop offset="1" stop-color="#33234C"/>
</linearGradient>
<linearGradient id="paint7_linear" x1="105.046" y1="27.4722" x2="206.041" y2="17.0041" gradientUnits="userSpaceOnUse">
<stop stop-color="#33234C"/>
<stop offset="0.0993" stop-color="#3D2C5F"/>
<stop offset="0.2135" stop-color="#473472"/>
<stop offset="0.3412" stop-color="#4F3B81"/>
<stop offset="0.488" stop-color="#55408C"/>
<stop offset="0.6707" stop-color="#584493"/>
<stop offset="1" stop-color="#594595"/>
</linearGradient>
</defs>
</svg>
