<svg width="248" height="386" viewBox="0 0 248 386" fill="none" xmlns="http://www.w3.org/2000/svg">
<path d="M151.234 19.9764C151.077 21.5602 151.805 23.1939 153.317 24.2998L160.665 29.679C158.903 30.3711 157.612 31.8479 157.434 33.6457C157.298 35.0084 157.819 36.2997 158.775 37.2985C159.731 38.2973 161.093 38.9893 162.67 39.1392L172.694 40.1166C174.221 40.2664 175.64 39.8811 176.753 39.1392L185.322 44.7325C185.322 44.7325 206.981 37.484 202.259 28.5804C197.543 19.6696 187.027 12.5067 187.027 12.5067H187.02C186.798 12.2641 186.542 12.0359 186.256 11.829L171.816 1.27728C169.369 -0.506303 165.752 -0.278 163.755 1.78382C162.998 2.5686 162.585 3.50319 162.485 4.47346C162.37 5.66489 162.763 6.90627 163.619 7.91934C161.286 6.9134 158.411 7.33433 156.713 9.08937C155.957 9.87415 155.543 10.8087 155.443 11.779C155.315 13.1203 155.821 14.5257 156.927 15.603C155.265 15.5673 153.638 16.1524 152.511 17.3081C151.748 18.0858 151.327 19.0204 151.234 19.9764Z" fill="url(#paint0_linear)"/>
<path d="M214.837 273.473C212.44 292.8 205.99 340.515 199.819 385.682L183.667 384.59L156.264 380.046L118.345 373.761L131.137 286.886L134.989 260.689L166.68 262.23L171.546 262.465L176.368 262.7L215.814 264.612C215.85 265.005 215.5 268.173 214.837 273.473Z" fill="url(#paint1_linear)"/>
<path d="M246.663 109.719C251.728 64.944 199.034 19.4056 199.034 19.4056L197.086 21.4032L178.623 40.3591L175.676 43.3841C225.381 83.8785 209.885 117.025 209.885 117.025C201.602 141.153 167.971 135.317 167.971 135.317L150.157 138.342L150.057 138.356L149.886 138.385L149.757 138.413L149.629 138.435L149.6 138.442C149.586 138.435 149.557 138.442 149.529 138.449L148.901 138.556L148.801 138.577L148.794 138.57L148.758 138.577C148.758 138.585 148.744 138.585 148.744 138.585C148.737 138.585 148.73 138.585 148.708 138.592C148.673 138.599 148.637 138.606 148.594 138.606L148.551 138.62C148.366 138.649 148.145 138.684 147.852 138.741L144.264 139.348L143.308 139.512C143.044 139.555 142.751 139.605 142.444 139.655L141.931 139.74L141.56 139.805L141.189 139.876C141.046 139.897 140.911 139.919 140.768 139.94L139.327 140.19C138.984 140.247 138.635 140.304 138.264 140.368C138.242 140.375 138.221 140.375 138.2 140.382H138.171L135.909 140.768C103.848 146.233 97.6908 163.127 97.6908 163.127C97.5196 163.405 97.3484 163.676 97.1771 163.947C94.0523 168.934 91.1415 173.129 88.4519 176.639C83.7932 182.689 79.7623 186.706 76.2736 189.21C60.5067 200.553 55.905 181.283 55.905 181.283C54.8278 177.716 54.4282 173.393 54.4354 168.898C54.4425 165.21 54.7279 161.4 55.1417 157.812C55.4128 155.357 55.7552 153.003 56.1048 150.856C56.2903 149.707 56.4829 148.615 56.6756 147.595C57.5317 142.929 58.3093 139.819 58.3093 139.819L57.1107 139.562L53.3082 138.741L49.4699 137.914L45.5317 137.065L29.3725 133.583L27.7102 133.227C27.6531 133.469 27.5889 133.719 27.5319 133.961C26.4332 138.485 25.5128 142.787 24.7566 146.889C24.5212 148.145 24.3071 149.386 24.1074 150.606C23.1657 156.242 22.5449 161.471 22.2025 166.33C22.0384 168.641 21.9385 170.874 21.8957 173.022C21.7887 178.672 22.0812 183.759 22.6948 188.325C23.3939 193.497 24.4997 198.013 25.9052 201.952C26.0265 202.28 26.1478 202.608 26.2691 202.936C26.3404 203.129 26.4189 203.321 26.4902 203.514C27.8172 206.903 29.3654 209.842 31.0562 212.389C31.1561 212.546 31.2631 212.703 31.3701 212.86C42.143 228.663 58.2308 229.005 58.2308 229.005C63.5459 229.283 68.383 228.927 72.7849 228.085C73.2629 227.999 73.7409 227.899 74.2118 227.792C91.3056 224.075 101.508 213.131 106.873 205.148C109.191 201.702 110.604 198.805 111.282 197.279C111.339 197.15 111.389 197.029 111.432 196.929C111.467 196.843 111.503 196.765 111.531 196.701C111.624 196.487 111.688 196.33 111.724 196.237C111.724 196.23 111.731 196.223 111.731 196.223C105.16 239.35 122.033 283.333 122.033 283.333C125.022 284.767 128.062 285.944 131.137 286.886C144.456 290.995 158.39 290.795 171.239 288.584C174.406 288.049 177.503 287.371 180.513 286.622C194.967 283.005 207.338 277.354 214.836 273.473C219.417 271.098 222.185 269.385 222.484 269.2C222.506 269.193 222.513 269.186 222.513 269.186C228.756 248.86 199.383 174.42 198.948 173.329L198.941 173.314C241.997 157.077 246.641 109.954 246.663 109.719Z" fill="#33234D"/>
<path d="M111.432 196.929C111.582 196.608 111.674 196.366 111.717 196.237C111.667 196.366 111.575 196.594 111.432 196.929Z" fill="#27357C"/>
<path d="M122.033 283.333C137.971 290.981 155.429 291.309 171.246 288.584C174.406 288.049 177.51 287.378 180.513 286.622C203.807 280.793 221.685 269.699 222.484 269.2C222.506 269.193 222.513 269.186 222.513 269.186C228.755 248.86 199.383 174.427 198.948 173.329L198.941 173.322C198.941 173.322 181.312 169.74 160.694 172.216C157.633 172.573 154.508 173.079 151.362 173.743C137.015 176.768 122.297 183.231 111.767 196.123C111.767 196.123 111.738 196.159 111.731 196.223C105.16 239.35 122.033 283.333 122.033 283.333Z" fill="url(#paint2_linear)"/>
<path d="M162.485 138.52L151.954 152.104L138.192 140.375L162.485 138.52Z" fill="url(#paint3_linear)"/>
<path d="M148.566 157.612L151.355 173.735L171.231 288.577C174.392 288.042 177.495 287.371 180.499 286.615L160.687 172.201L157.883 155.999L148.566 157.612Z" fill="#33234D"/>
<path d="M57.8599 102.249L64.0882 106.237C65.4865 107.129 67.3629 106.723 68.2547 105.324L69.0251 104.118C69.9169 102.72 69.5103 100.844 68.112 99.952L61.8837 95.964C60.4853 95.0722 58.609 95.4788 57.7172 96.8771L56.9467 98.0828C56.0478 99.4812 56.4616 101.358 57.8599 102.249Z" fill="#436460"/>
<path d="M55.726 94.7655L71.7712 105.046C75.7379 107.586 81.06 106.423 83.5999 102.456L86.1112 98.5395C88.651 94.5728 87.4881 89.2506 83.5214 86.7108L67.4763 76.4302C63.5096 73.8904 58.1874 75.0533 55.6476 79.02L53.1363 82.9368C50.5965 86.9034 51.7665 92.2257 55.726 94.7655Z" fill="#E3E5E7"/>
<path d="M60.5779 92.7464L72.6563 100.48C75.1961 102.107 78.6063 101.358 80.2329 98.8177L81.6313 96.6275C83.2579 94.0877 82.5088 90.6774 79.969 89.0508L67.8906 81.3172C65.3507 79.6906 61.9405 80.4397 60.3139 82.9795L58.9156 85.1697C57.2889 87.7096 58.0381 91.1198 60.5779 92.7464Z" fill="#334F4E"/>
<path d="M78.7994 94.4946C79.4094 93.5423 79.2879 92.3758 78.528 91.8891C77.7682 91.4024 76.6578 91.7798 76.0478 92.7321C75.4378 93.6843 75.5593 94.8509 76.3192 95.3376C77.079 95.8243 78.1894 95.4468 78.7994 94.4946Z" fill="#F8AC1A"/>
<path d="M66.0574 86.3404C66.6674 85.3881 66.5459 84.2216 65.7861 83.7349C65.0263 83.2482 63.9158 83.6256 63.3059 84.5779C62.6959 85.5302 62.8174 86.6967 63.5772 87.1834C64.337 87.6701 65.4475 87.2927 66.0574 86.3404Z" fill="#F8AC1A"/>
<path d="M63.8679 91.7165L71.7441 96.7616L72.7408 95.2055L64.8646 90.1605L63.8679 91.7165Z" fill="#F8AC1A"/>
<path d="M70.9796 81.6098L77.3506 85.6906C78.7061 86.561 80.5325 86.1615 81.4029 84.8059L82.152 83.6359C83.0224 82.2804 82.6229 80.454 81.2673 79.5836L74.8964 75.5028C73.5409 74.6324 71.7144 75.0319 70.8441 76.3874L70.095 77.5575C69.2246 78.913 69.6241 80.7394 70.9796 81.6098Z" fill="#E3E5E7"/>
<path d="M31.9122 136.116L44.1332 143.942C48.0999 146.482 53.4221 145.319 55.962 141.353L70.73 118.302C73.2698 114.335 72.1069 109.013 68.1403 106.473L55.9192 98.6465C51.9525 96.1067 46.6302 97.2696 44.0904 101.236L29.3224 124.287C26.7826 128.254 27.9455 133.576 31.9122 136.116Z" fill="#E3E5E7"/>
<path d="M37.6769 155.173L42.2368 158.093L49.2137 147.201L44.6538 144.28L37.6769 155.173Z" fill="#436460"/>
<path d="M20.8332 144.376L25.3931 147.296L32.37 136.404L27.81 133.483L20.8332 144.376Z" fill="#436460"/>
<path d="M34.652 180.171L25.0635 174.028L37.2989 154.929L43.6342 158.982L34.652 180.171Z" fill="#E3E5E7"/>
<path d="M4.15991 160.637L13.7413 166.779L25.9838 147.674L19.6486 143.621L4.15991 160.637Z" fill="#E3E5E7"/>
<path d="M23.7761 175.993L35.5754 183.551L36.8415 181.574L25.0422 174.016L23.7761 175.993Z" fill="#747474"/>
<path d="M0.657952 161.187L12.4573 168.745L13.7234 166.769L1.92403 159.211L0.657952 161.187Z" fill="#747474"/>
<path d="M73.5411 113.907C73.5411 113.907 87.9381 124.123 81.4601 142.658L77.3151 141.381C77.3151 141.381 83.9643 129.802 71.415 117.224L73.5411 113.907Z" fill="#747474"/>
<path d="M46.9015 96.8416C46.9015 96.8416 31.5984 88.0307 17.4724 101.672L20.3689 104.903C20.3689 104.903 28.1097 94.0235 44.7755 100.159L46.9015 96.8416Z" fill="#747474"/>
<path d="M80.6325 149.136C80.6325 149.136 82.8584 152.225 79.6266 154.787L77.6504 154.173C77.6504 154.173 80.6254 151.284 78.2854 148.929L80.6325 149.136Z" fill="#436460"/>
<path d="M74.476 147.217C74.476 147.217 71.1229 148.572 72.1574 152.461L73.9766 153.024C73.9766 153.024 73.3131 149.008 76.3524 148.323L74.476 147.217Z" fill="#436460"/>
<path d="M75.1039 147.938L79.6413 149.35C81.4035 149.9 83.2941 148.901 83.8434 147.139L84.3143 145.619C84.8636 143.857 83.8648 141.966 82.1098 141.417L77.5724 140.004C75.8102 139.455 73.9196 140.454 73.3702 142.216L72.8994 143.735C72.35 145.505 73.3417 147.395 75.1039 147.938Z" fill="#E3E5E7"/>
<path d="M11.1655 105.346C11.1655 105.346 7.42711 104.618 6.44971 108.62L7.83377 110.154C7.83377 110.154 9.21782 106.245 12.3284 107.386L11.1655 105.346Z" fill="#436460"/>
<path d="M15.4748 110.133C15.4748 110.133 15.646 113.75 11.6793 114.435L10.4094 113.022C10.4094 113.022 14.3333 111.945 13.6841 108.899L15.4748 110.133Z" fill="#436460"/>
<path d="M14.5544 109.862L11.3725 106.33C10.1383 104.96 10.2525 102.827 11.6223 101.593L12.8065 100.53C14.1763 99.2957 16.3095 99.4098 17.5437 100.78L20.7256 104.311C21.9599 105.681 21.8457 107.814 20.4759 109.048L19.2917 110.111C17.9219 111.353 15.7887 111.239 14.5544 109.862Z" fill="#E3E5E7"/>
<path d="M45.5673 120.663L52.4091 125.044C56.119 127.419 61.0987 126.328 63.4745 122.618L65.522 119.422C67.8977 115.712 66.8062 110.732 63.0963 108.356L56.2545 103.976C52.5447 101.6 47.5649 102.692 45.1892 106.402L43.1416 109.598C40.7659 113.3 41.8574 118.287 45.5673 120.663Z" fill="#747474"/>
<path d="M51.8744 139.098C53.553 139.098 54.9137 137.737 54.9137 136.059C54.9137 134.38 53.553 133.02 51.8744 133.02C50.1959 133.02 48.8352 134.38 48.8352 136.059C48.8352 137.737 50.1959 139.098 51.8744 139.098Z" fill="#747474"/>
<path d="M35.6579 128.71C37.3364 128.71 38.6971 127.35 38.6971 125.671C38.6971 123.993 37.3364 122.632 35.6579 122.632C33.9794 122.632 32.6187 123.993 32.6187 125.671C32.6187 127.35 33.9794 128.71 35.6579 128.71Z" fill="#747474"/>
<path d="M43.7629 133.904C45.4414 133.904 46.8021 132.544 46.8021 130.865C46.8021 129.187 45.4414 127.826 43.7629 127.826C42.0843 127.826 40.7236 129.187 40.7236 130.865C40.7236 132.544 42.0843 133.904 43.7629 133.904Z" fill="#747474"/>
<path d="M61.6408 127.284L65.2651 129.873C67.0558 131.158 69.5742 130.737 70.8583 128.946L71.9642 127.398C73.2483 125.607 72.8274 123.089 71.0367 121.805L67.4125 119.215C65.6217 117.931 63.1033 118.352 61.8192 120.142L60.7134 121.69C59.4292 123.481 59.8501 126 61.6408 127.284Z" fill="#F6AD9D"/>
<path d="M35.686 111.31L39.3103 113.9C41.101 115.184 43.6194 114.763 44.9036 112.972L46.0094 111.424C47.2935 109.633 46.8726 107.115 45.0819 105.831L41.4577 103.241C39.6669 101.957 37.1486 102.378 35.8644 104.168L34.7586 105.717C33.4744 107.514 33.8882 110.033 35.686 111.31Z" fill="#F6AD9D"/>
<path d="M26.5688 123.067L30.193 125.657C31.9837 126.941 34.5022 126.52 35.7864 124.73L36.8922 123.182C38.1764 121.391 37.7554 118.872 35.9647 117.588L32.3405 114.998C30.5498 113.714 28.0313 114.135 26.7471 115.926L25.6413 117.474C24.3572 119.272 24.7781 121.79 26.5688 123.067Z" fill="#F6AD9D"/>
<path d="M31.1059 117.717L34.7301 120.306C36.5208 121.591 39.0393 121.17 40.3235 119.379L41.4293 117.831C42.7135 116.04 42.2925 113.522 40.5018 112.238L36.8776 109.648C35.0869 108.364 32.5685 108.785 31.2843 110.575L30.1784 112.123C28.8942 113.921 29.3152 116.433 31.1059 117.717Z" fill="#F6AD9D"/>
<path d="M114.257 111.388C114.286 111.674 114.307 111.959 114.335 112.259C114.407 112.958 114.507 113.657 114.628 114.363C115.876 121.512 119.372 127.733 124.309 132.42C124.381 132.499 124.466 132.57 124.545 132.649C128.533 136.38 133.448 139.12 138.82 140.582C139.762 140.832 140.697 141.046 141.66 141.21C142.723 141.417 143.8 141.56 144.892 141.645C144.892 141.645 144.892 141.645 144.899 141.645C144.899 141.645 144.899 141.645 144.906 141.638C147.788 141.895 150.77 141.774 153.767 141.253C158.012 140.525 161.936 139.048 165.424 136.986V136.979C165.453 136.979 165.474 136.958 165.51 136.944C165.56 136.915 165.603 136.894 165.66 136.844C165.688 136.837 165.703 136.829 165.724 136.808L166.544 136.294C166.552 136.294 166.566 136.287 166.58 136.28C167.051 135.98 167.529 135.667 167.978 135.324C168.014 135.31 168.05 135.288 168.085 135.253L168.093 135.246C174.121 130.908 178.552 124.73 180.656 117.724C180.942 116.782 181.184 115.84 181.377 114.884C181.384 114.884 181.384 114.884 181.384 114.877C182.19 110.989 182.283 106.894 181.576 102.777C181.213 100.708 180.67 98.725 179.957 96.8416C179.679 96.121 179.386 95.4219 179.079 94.7441C179.051 94.6728 179.008 94.6228 178.987 94.5515C178.987 94.5372 178.972 94.5087 178.958 94.4659C178.93 94.4088 178.894 94.3374 178.851 94.2661C178.815 94.1805 178.766 94.0806 178.701 93.9593C172.323 81.0034 157.712 73.2626 142.452 75.9095C124.98 78.9201 112.887 94.4587 114.257 111.388Z" fill="#F6AD9D"/>
<path d="M161.801 127.536C168.397 126.394 172.819 120.121 171.677 113.525C170.535 106.93 164.262 102.508 157.666 103.65C151.07 104.792 146.648 111.065 147.791 117.661C148.933 124.257 155.206 128.678 161.801 127.536Z" fill="#EF7A6B"/>
<path d="M152.704 107.771L152.019 107.893C151.227 108.028 150.464 107.493 150.328 106.701L149.743 103.312C149.608 102.521 150.143 101.757 150.935 101.622L151.619 101.5C152.411 101.365 153.175 101.9 153.31 102.692L153.895 106.081C154.038 106.872 153.496 107.636 152.704 107.771Z" fill="#30244C"/>
<path d="M114.328 112.252C114.399 112.951 114.499 113.65 114.62 114.356C115.869 121.505 119.365 127.726 124.302 132.413C124.437 132.399 124.573 132.378 124.708 132.356C130.608 131.336 134.468 125.158 133.319 118.566C132.178 111.966 126.463 107.443 120.57 108.471C118.038 108.899 115.876 110.297 114.328 112.252Z" fill="#EF7A6B"/>
<path d="M151.69 116.497C151.312 115.369 149.329 114.007 147.945 114.057C145.32 114.157 144.656 115.405 142.423 116.097C139.355 117.046 137.415 115.412 135.517 116.425C134.019 117.224 133.248 118.915 134.211 120.313C135.881 122.732 141.132 123.431 145.127 122.568C148.387 121.869 152.511 118.929 151.69 116.497Z" fill="#F2F2F1" stroke="#30294D" stroke-width="2" stroke-miterlimit="10" stroke-linecap="round"/>
<path d="M146.818 114.656L150.328 119.943" stroke="#30294D" stroke-width="2" stroke-miterlimit="10" stroke-linecap="round"/>
<path d="M143.85 115.576L146.889 122.004" stroke="#30294D" stroke-width="2" stroke-miterlimit="10" stroke-linecap="round"/>
<path d="M141.132 116.368L142.93 122.875" stroke="#30294D" stroke-width="2" stroke-miterlimit="10" stroke-linecap="round"/>
<path d="M137.964 116.233L138.021 122.497" stroke="#30294D" stroke-width="2" stroke-miterlimit="10" stroke-linecap="round"/>
<path d="M129.874 111.524L129.189 111.645C128.398 111.781 127.634 111.246 127.499 110.454L126.914 107.065C126.778 106.273 127.313 105.51 128.105 105.374L128.79 105.253C129.582 105.117 130.345 105.652 130.481 106.444L131.066 109.833C131.201 110.625 130.666 111.388 129.874 111.524Z" fill="#30244C"/>
<path d="M141.018 88.2447C141.018 88.2447 154.473 110.461 181.926 105.624L177.445 125.001C177.445 125.001 177.952 127.155 182.147 129.224C182.147 129.224 184.33 110.119 190.023 102.827C195.716 95.536 181.305 68.7751 164.176 70.1306C164.176 70.1306 138.842 50.3114 117.153 83.2078C117.153 83.2078 101.408 106.223 116.447 111.41C116.447 111.41 117.852 93.838 132.278 88.3017C132.278 88.3017 135.695 104.333 145.969 105.781C145.976 105.781 140.811 101.051 141.018 88.2447Z" fill="url(#paint4_linear)"/>
<path d="M189.339 114.73C190.117 109.923 188.116 105.6 184.868 105.074C181.62 104.548 178.357 108.019 177.579 112.826C176.8 117.633 178.802 121.957 182.05 122.482C185.297 123.008 188.561 119.537 189.339 114.73Z" fill="#F6AD9D"/>
<path d="M186.642 108.592C186.642 108.592 179.907 106.352 180.778 118.965" stroke="#30234C" stroke-width="2" stroke-miterlimit="10" stroke-linecap="round"/>
<path d="M186.471 113.229C186.471 113.229 183.995 109.983 180.856 114.199" stroke="#30234C" stroke-width="2" stroke-miterlimit="10" stroke-linecap="round"/>
<path d="M156.906 300.534L165.353 310.857L156.264 380.046" stroke="#30234C" stroke-width="2" stroke-miterlimit="10"/>
<path d="M155.315 153.952C155.315 153.952 156.321 142.48 167.736 162.385C167.736 162.385 174.613 152.225 170.119 137.907" stroke="#E7E6E6" stroke-width="2" stroke-miterlimit="10" stroke-linecap="round"/>
<path d="M149.386 155.172C149.386 155.172 144.421 142.209 141.745 167.364C141.745 167.364 133.855 161.186 134.597 143.108" stroke="#E7E6E6" stroke-width="2" stroke-miterlimit="10" stroke-linecap="round"/>
<path d="M153.417 159.096L175.398 284.446" stroke="#E7E6E6" stroke-width="2" stroke-miterlimit="10" stroke-linecap="round"/>
<path d="M164.04 8.15475L173.943 14.9324" stroke="#30234C" stroke-width="2" stroke-miterlimit="10" stroke-linecap="round"/>
<path d="M157.998 15.9455L168.806 21.974" stroke="#30234C" stroke-width="2" stroke-miterlimit="10" stroke-linecap="round"/>
<path d="M161.486 29.7147L167.165 30.2712C167.165 30.2712 175.962 25.9192 183.075 33.4816" stroke="#30234C" stroke-width="2" stroke-miterlimit="10" stroke-linecap="round"/>
<path d="M41.2227 113.407L35.3083 109.712" stroke="#30234C" stroke-width="2" stroke-miterlimit="10" stroke-linecap="round"/>
<path d="M36.3709 119.172L30.4565 115.476" stroke="#30234C" stroke-width="2" stroke-miterlimit="10" stroke-linecap="round"/>
<defs>
<linearGradient id="paint0_linear" x1="211.28" y1="-20.727" x2="179.661" y2="21.2534" gradientUnits="userSpaceOnUse">
<stop stop-color="#EF7A6B"/>
<stop offset="0.2443" stop-color="#EF7F6F"/>
<stop offset="0.5444" stop-color="#F18D7C"/>
<stop offset="0.8724" stop-color="#F4A392"/>
<stop offset="1" stop-color="#F6AD9D"/>
</linearGradient>
<linearGradient id="paint1_linear" x1="54.0668" y1="323.185" x2="151.538" y2="323.185" gradientUnits="userSpaceOnUse">
<stop stop-color="#4864AC"/>
<stop offset="0.3043" stop-color="#818EC3"/>
<stop offset="0.6301" stop-color="#B6BCD8"/>
<stop offset="0.8716" stop-color="#D7D9E3"/>
<stop offset="1" stop-color="#E3E5E7"/>
</linearGradient>
<linearGradient id="paint2_linear" x1="297.384" y1="200.049" x2="182.505" y2="226.378" gradientUnits="userSpaceOnUse">
<stop stop-color="#33234D"/>
<stop offset="0.1929" stop-color="#332450"/>
<stop offset="0.4127" stop-color="#332757"/>
<stop offset="0.6459" stop-color="#322C64"/>
<stop offset="0.8867" stop-color="#2C3376"/>
<stop offset="1" stop-color="#263781"/>
</linearGradient>
<linearGradient id="paint3_linear" x1="149.852" y1="137.296" x2="155.091" y2="160.721" gradientUnits="userSpaceOnUse">
<stop stop-color="#EF7A6B"/>
<stop offset="1" stop-color="#F6AD9D"/>
</linearGradient>
<linearGradient id="paint4_linear" x1="212.486" y1="39.8806" x2="156.643" y2="98.1639" gradientUnits="userSpaceOnUse">
<stop stop-color="#33234D"/>
<stop offset="0.1789" stop-color="#332552"/>
<stop offset="0.4604" stop-color="#332A5E"/>
<stop offset="0.8074" stop-color="#2D3273"/>
<stop offset="1" stop-color="#263781"/>
</linearGradient>
</defs>
</svg>
