<svg width="271" height="331" viewBox="0 0 271 331" fill="none" xmlns="http://www.w3.org/2000/svg">
<path d="M118.697 98.0935L109.524 115.539L99.3616 99.5182L118.697 98.0935Z" fill="#F5A8A2"/>
<path d="M144.165 127.287L74.1224 118.853L12.78 103.289C12.78 103.289 -0.331028 97.926 0.461273 85.2873C1.25357 72.6486 19.8194 32.5688 19.8194 32.5688L42.4304 44.1105C42.4304 44.1105 23.5903 77.1281 35.0787 82.0572C51.6256 89.1574 89.0391 93.6522 89.0391 93.6522L118.682 98.1089L144.165 127.287Z" fill="url(#paint0_linear)"/>
<path d="M118.697 98.0937L144.164 127.287L221.772 136.307C221.772 136.307 257.936 139.705 261.212 137.023C262.019 136.741 262.766 136.254 263.352 135.56L269.059 128.879C270.803 126.83 270.521 123.783 268.426 122.099C267.375 121.253 266.065 120.91 264.8 121.032C263.528 121.154 262.309 121.733 261.433 122.754L256.656 128.346C256.656 128.346 256.656 128.346 256.648 128.346C256.511 128.369 254.058 128.734 255.993 122.579C256.138 122.305 256.26 122.023 256.351 121.718L260.221 108.79C260.93 106.428 259.681 103.96 257.41 103.03L257.639 102.261C258.401 99.7163 256.885 97.0347 254.256 96.311C253.647 96.1434 253.03 96.0901 252.428 96.151C250.447 96.3338 248.68 97.6746 248.101 99.6325L245.472 108.424C245.472 108.424 245.472 108.424 245.465 108.432C245.328 108.561 240.155 113.185 225.924 113.345C203.077 113.376 118.697 98.0937 118.697 98.0937Z" fill="url(#paint1_linear)"/>
<path d="M48.3193 24.9429C49.1725 22.2766 52.037 20.7072 54.6958 21.469L68.1725 25.3239C70.8313 26.0857 72.3092 28.8892 71.4636 31.5632C70.6104 34.2296 67.7459 35.799 65.0871 35.0372L51.6104 31.1823C48.9516 30.4205 47.4736 27.6093 48.3193 24.9429Z" fill="#F5A8A2"/>
<path d="M44.083 19.0844C44.9362 16.418 47.8007 14.8486 50.4595 15.6105L63.9362 19.4653C66.595 20.2271 68.073 23.0307 67.2197 25.7047C66.3665 28.3711 63.502 29.9404 60.8432 29.1786L47.3664 25.3238C44.7153 24.5619 43.2374 21.7508 44.083 19.0844Z" fill="#F5A8A2"/>
<path d="M37.8059 7.5274C37.524 4.7772 39.558 2.21745 42.3311 1.85177L51.3892 0.640467C54.1623 0.267171 56.6688 2.21745 56.9583 4.96765C57.2401 7.71785 55.206 10.2776 52.4329 10.6433L43.3748 11.8546C40.5941 12.2279 38.0878 10.2776 37.8059 7.5274Z" fill="#F5A8A2"/>
<path d="M19.8191 32.5612C19.8191 32.5612 35.6955 4.13735 39.8627 2.88033C44.0299 1.62331 44.8451 11.6566 44.8451 11.6566C44.8451 11.6566 42.8568 13.6373 49.5151 15.4353L55.9373 32.4088C55.9373 32.4088 48.8904 34.1838 40.5864 46.5483L19.8191 32.5612Z" fill="#F5A8A2"/>
<path d="M178.858 309.661L147.593 321.591L131.29 323.115C131.29 323.115 132.044 310.278 131.945 302.294L131.937 302.286C131.891 298.653 131.671 296.032 131.114 296.085C129.347 296.253 118.94 298.538 118.94 298.538L119.656 303.437L122.643 323.93L56.1733 330.147L83.9953 311.786L83.3706 306.774L81.2908 289.975L120.266 292.078L164.802 294.47L165.031 294.485L165.465 299.094L166.174 306.72L178.858 309.661Z" fill="url(#paint2_linear)"/>
<path d="M118.697 98.0935L109.143 123.066L94.9277 98.1545L118.697 98.0935Z" fill="url(#paint3_linear)"/>
<path d="M118.697 98.0937L109.143 123.066L94.5924 97.5604L89.0464 93.637L56.562 88.228L50.9397 112.538L74.1221 118.854L109.143 123.066L144.165 127.287L163.744 129.565L168.033 106.405L118.697 98.0937Z" fill="#EF8493"/>
<path d="M81.1311 77.7376C81.5272 81.9581 82.9747 85.8358 85.1992 89.1574C86.7762 91.5114 88.7493 93.5836 91.012 95.2977C96.1162 99.1525 102.706 101.194 109.7 100.547C116.35 99.922 122.194 96.9661 126.445 92.6008C129.53 89.4316 131.777 85.5158 132.882 81.2191C133.56 78.5451 133.811 75.7263 133.537 72.839C132.234 58.8899 119.443 48.6814 104.969 50.0299C90.5015 51.3783 79.8283 63.7885 81.1311 77.7376Z" fill="#F5A8A2"/>
<path d="M112.945 83.6799C113.181 83.5656 108.968 89.7516 103.917 84.5255" stroke="#34244C" stroke-width="2" stroke-miterlimit="10" stroke-linecap="round"/>
<path d="M84.2087 73.9818C84.2848 74.0807 84.3534 74.1873 84.4142 74.2938C84.5284 74.2482 84.635 74.1949 84.7492 74.1416C84.5665 74.0883 84.3838 74.0427 84.2087 73.9818Z" fill="#15182B"/>
<path d="M97.1217 61.564C97.1217 61.564 97.3655 74.8655 81.1309 77.73L76.5066 80.4268C76.5066 80.4268 71.1357 42.8915 86.0218 30.6413C87.3702 29.5291 88.3988 28.5235 90.1891 27.8073C96.1923 25.4152 114.004 19.9758 126.079 33.3763C136.828 45.3065 137.719 74.6979 137.719 74.6979C137.719 74.6979 113.943 77.3719 97.1217 61.564Z" fill="url(#paint4_linear)"/>
<path d="M83.1074 90.5047C85.6463 89.6328 86.7561 86.1646 85.5863 82.7582C84.4165 79.3518 81.4101 77.2972 78.8712 78.1691C76.3323 79.041 75.2225 82.5092 76.3923 85.9156C77.5621 89.3219 80.5685 91.3766 83.1074 90.5047Z" fill="#F5A8A2"/>
<path d="M139.715 81.2753C140.348 77.7299 138.743 74.4773 136.129 74.0106C133.516 73.5439 130.884 76.0397 130.25 79.5851C129.617 83.1305 131.223 86.3829 133.836 86.8496C136.45 87.3164 139.082 84.8207 139.715 81.2753Z" fill="#F5A8A2"/>
<path d="M116.061 84.8988C116.51 89.6678 120.739 93.1798 125.508 92.7304C125.828 92.6999 126.14 92.6542 126.445 92.5856C129.53 89.4164 131.777 85.5006 132.882 81.2039C131.587 77.5319 127.938 75.0712 123.885 75.4521C119.124 75.9016 115.611 80.1297 116.061 84.8988Z" fill="#F08B75"/>
<path d="M118.201 78.7966C118.917 78.728 119.45 78.0881 119.382 77.3719L119.207 75.4826C119.138 74.7665 118.498 74.2332 117.782 74.3018C117.066 74.3703 116.533 75.0103 116.601 75.7264L116.776 77.6157C116.845 78.3319 117.485 78.8651 118.201 78.7966Z" fill="#34254C"/>
<path d="M76.9863 54.6923C80.2387 54.6923 82.8752 52.0557 82.8752 48.8033C82.8752 45.551 80.2387 42.9144 76.9863 42.9144C73.734 42.9144 71.0974 45.551 71.0974 48.8033C71.0974 52.0557 73.734 54.6923 76.9863 54.6923Z" fill="#F6C8D6"/>
<path d="M86.662 55.1647C89.9143 55.1647 92.5509 52.5281 92.5509 49.2758C92.5509 46.0234 89.9143 43.3868 86.662 43.3868C83.4096 43.3868 80.7729 46.0234 80.7729 49.2758C80.7729 52.5281 83.4096 55.1647 86.662 55.1647Z" fill="#F6C8D6"/>
<path d="M88.6809 64.5047C91.9333 64.5047 94.5699 61.8681 94.5699 58.6157C94.5699 55.3634 91.9333 52.7268 88.6809 52.7268C85.4285 52.7268 82.792 55.3634 82.792 58.6157C82.792 61.8681 85.4285 64.5047 88.6809 64.5047Z" fill="#F6C8D6"/>
<path d="M81.3135 68.3518C84.5658 68.3518 87.2024 65.7153 87.2024 62.4629C87.2024 59.2105 84.5658 56.574 81.3135 56.574C78.0611 56.574 75.4246 59.2105 75.4246 62.4629C75.4246 65.7153 78.0611 68.3518 81.3135 68.3518Z" fill="#F6C8D6"/>
<path d="M74.2668 63.0953C77.5192 63.0953 80.1558 60.4587 80.1558 57.2064C80.1558 53.954 77.5192 51.3174 74.2668 51.3174C71.0145 51.3174 68.3779 53.954 68.3779 57.2064C68.3779 60.4587 71.0145 63.0953 74.2668 63.0953Z" fill="#F6C8D6"/>
<path d="M81.3444 61.2973C84.4453 61.2973 86.9592 58.7836 86.9592 55.6827C86.9592 52.5818 84.4453 50.068 81.3444 50.068C78.2435 50.068 75.7297 52.5818 75.7297 55.6827C75.7297 58.7836 78.2435 61.2973 81.3444 61.2973Z" fill="#F2B223"/>
<path d="M90.5166 42.0536L86.3799 45.0247L91.1184 46.9064L94.0972 51.0432L95.9713 46.3046L100.108 43.3335L95.3694 41.4518L92.3983 37.315L90.5166 42.0536Z" fill="#F5E8F3"/>
<path d="M103.018 46.7768L98.8816 49.7479L103.62 51.6297L106.591 55.7664L108.473 51.0278L112.61 48.0567L107.871 46.175L104.9 42.0382L103.018 46.7768Z" fill="#F5E8F3"/>
<path d="M95.682 52.8944L93.9832 54.1133L95.9258 54.8828L97.1448 56.5817L97.9217 54.639L99.6207 53.4125L97.6704 52.643L96.4515 50.9442L95.682 52.8944Z" fill="#F5E8F3"/>
<path d="M80.1634 183.38L148.812 176.951L144.165 127.287L74.1221 118.854L80.1634 183.38Z" fill="url(#paint5_linear)"/>
<path d="M148.812 176.95C148.812 176.95 205.827 213.96 186.256 254.725C166.684 295.491 165.442 299.155 165.442 299.155L83.4316 306.827C83.4316 306.827 38.0114 267.654 51.3815 233.752C64.7515 199.851 80.1634 183.38 80.1634 183.38L148.812 176.95Z" fill="#30244C"/>
<path d="M91.8877 182.283C91.8877 182.283 136.211 245.165 117.333 303.658L165.442 299.155L148.811 176.958L91.8877 182.283Z" fill="url(#paint6_linear)"/>
<path d="M84.9628 87.8089C85.0085 88.266 85.0847 88.7155 85.199 89.1497C86.776 91.5038 88.7491 93.5759 91.0118 95.2901C92.0783 95.6253 93.2287 95.7548 94.4171 95.6481C99.1862 95.1986 102.698 90.9705 102.249 86.2015C101.799 81.4324 97.5711 77.928 92.8021 78.3699C88.033 78.8117 84.521 83.0399 84.9628 87.8089Z" fill="#F08B75"/>
<path opacity="0.79" d="M123.055 95.5263C123.055 95.5263 138.649 92.8752 171.682 163.847C204.715 234.819 246.25 137.953 246.25 137.953L258.271 137.815C258.271 137.815 219.037 381.486 118.682 98.1013L123.055 95.5263Z" fill="#EA5172"/>
<path opacity="0.76" d="M33.7297 285.084L56.8132 287.652C72.4992 288.886 77.3749 287.987 77.6111 286.486L76.2245 271.661L84.7875 270.861C78.4795 195.029 87.0653 93.3932 87.0653 93.3932L89.0462 93.6446L85.0693 88.967C82.3877 92.6695 78.8529 89.386 78.8529 89.386L33.7297 285.084Z" fill="#E95075"/>
<path d="M77.5728 286.075L77.6109 286.487C77.6338 286.349 77.6261 286.212 77.5728 286.075Z" fill="#EA614B"/>
<path d="M256.809 103.091C256.809 103.091 253.243 101.453 250.981 107.441C248.718 113.429 247.75 116.408 247.75 116.408" stroke="#34244C" stroke-width="2" stroke-miterlimit="10" stroke-linecap="round"/>
<path d="M67.0072 26.1923C67.0072 26.1923 66.4663 30.0776 60.1965 28.7597C53.9342 27.4417 50.9021 26.6494 50.9021 26.6494" stroke="#34244C" stroke-width="2" stroke-miterlimit="10" stroke-linecap="round"/>
<path d="M250.005 140.581C250.005 140.581 210.809 232.488 185.105 193.574" stroke="#34244C" stroke-width="2" stroke-miterlimit="10" stroke-linecap="round"/>
<path d="M74.8379 271.851C74.8379 271.851 35.238 274.571 76.1101 285.458" stroke="#34244C" stroke-width="2" stroke-miterlimit="10" stroke-linecap="round"/>
<path d="M72.5224 155.185L57.6362 277.238" stroke="#34244C" stroke-width="2" stroke-miterlimit="10" stroke-linecap="round"/>
<path d="M98.9046 80.6021C99.6207 80.5335 100.154 79.8936 100.085 79.1775L99.9103 77.2881C99.8417 76.572 99.2017 76.0387 98.4855 76.1073C97.7694 76.1759 97.2362 76.8158 97.3048 77.5319L97.48 79.4212C97.5485 80.1374 98.1885 80.6706 98.9046 80.6021Z" fill="#34254C"/>
<defs>
<linearGradient id="paint0_linear" x1="75.6312" y1="85.1641" x2="68.0944" y2="131.876" gradientUnits="userSpaceOnUse">
<stop stop-color="#F5A8A2"/>
<stop offset="0.1853" stop-color="#F4A59E"/>
<stop offset="0.3834" stop-color="#F39D93"/>
<stop offset="0.5873" stop-color="#F18F80"/>
<stop offset="0.794" stop-color="#EE7C67"/>
<stop offset="1" stop-color="#EB6248"/>
</linearGradient>
<linearGradient id="paint1_linear" x1="194.02" y1="117.435" x2="191.508" y2="152.348" gradientUnits="userSpaceOnUse">
<stop stop-color="#F5A8A2"/>
<stop offset="0.1639" stop-color="#F4A29A"/>
<stop offset="0.4366" stop-color="#F29283"/>
<stop offset="0.7821" stop-color="#EE7660"/>
<stop offset="1" stop-color="#EB6248"/>
</linearGradient>
<linearGradient id="paint2_linear" x1="117.688" y1="326.771" x2="116.866" y2="294.302" gradientUnits="userSpaceOnUse">
<stop stop-color="#F5A8A2"/>
<stop offset="0.1639" stop-color="#F4A29A"/>
<stop offset="0.4366" stop-color="#F29283"/>
<stop offset="0.7821" stop-color="#EE7660"/>
<stop offset="1" stop-color="#EB6248"/>
</linearGradient>
<linearGradient id="paint3_linear" x1="106.965" y1="111.528" x2="106.608" y2="87.8648" gradientUnits="userSpaceOnUse">
<stop stop-color="#F5A8A2"/>
<stop offset="0.2112" stop-color="#F3988C"/>
<stop offset="0.7442" stop-color="#ED725A"/>
<stop offset="1" stop-color="#EB6248"/>
</linearGradient>
<linearGradient id="paint4_linear" x1="107.879" y1="84.31" x2="98.4663" y2="-4.17672" gradientUnits="userSpaceOnUse">
<stop stop-color="#5B4192"/>
<stop offset="0.1102" stop-color="#553E87"/>
<stop offset="0.3349" stop-color="#43366A"/>
<stop offset="0.6549" stop-color="#28243C"/>
<stop offset="1" stop-color="#020203"/>
</linearGradient>
<linearGradient id="paint5_linear" x1="120.578" y1="147.101" x2="45.9247" y2="154.089" gradientUnits="userSpaceOnUse">
<stop stop-color="#5B4192"/>
<stop offset="0.1998" stop-color="#593F8F"/>
<stop offset="0.4035" stop-color="#533B85"/>
<stop offset="0.6088" stop-color="#4A3575"/>
<stop offset="0.8141" stop-color="#3D2C61"/>
<stop offset="1" stop-color="#30244C"/>
</linearGradient>
<linearGradient id="paint6_linear" x1="136.226" y1="240.065" x2="23.9453" y2="250.574" gradientUnits="userSpaceOnUse">
<stop stop-color="#30244C"/>
<stop offset="0.1558" stop-color="#3B2A5D"/>
<stop offset="0.3826" stop-color="#483373"/>
<stop offset="0.6033" stop-color="#533B83"/>
<stop offset="0.813" stop-color="#593F8E"/>
<stop offset="1" stop-color="#5B4192"/>
</linearGradient>
</defs>
</svg>
